<?xml version="1.0" encoding="UTF-8" standalone="no"?>
<svg width="34px" height="34px" viewBox="0 0 34 34" version="1.1" xmlns="http://www.w3.org/2000/svg" xmlns:xlink="http://www.w3.org/1999/xlink">
    <!-- Generator: Sketch 3.8.3 (29802) - http://www.bohemiancoding.com/sketch -->
    <title>Group 3</title>
    <desc>Created with Sketch.</desc>
    <defs></defs>
    <g id="Symbols" stroke="none" stroke-width="1" fill="none" fill-rule="evenodd">
        <g id="Footer-white" transform="translate(-90.000000, -58.000000)">
            <g id="Group-2" transform="translate(90.000000, 58.000000)">
                <g id="Group-3">
                    <path d="M0.38862132,16.9994 C0.38862132,26.279 7.8967901,33.7994 17.1586218,33.7994 C26.4204535,33.7994 33.9286222,26.279 33.9286222,16.9994 C33.9286222,7.721 26.4204535,0.1994 17.1586218,0.1994 C7.8967901,0.1994 0.38862132,7.721 0.38862132,16.9994 Z" id="Fill-2" fill="#26559A"></path>
                    <path d="M17.9638875,25 L14.6548511,25 L14.6548511,16.9996672 L13,16.9996672 L13,14.2421368 L14.6548511,14.2421368 L14.6548511,12.5869529 C14.6548511,10.3376602 15.5887835,9 18.2408055,9 L20.4501581,9 L20.4501581,11.7575304 L19.070228,11.7575304 C18.037111,11.7575304 17.9685472,12.1429522 17.9685472,12.8618739 L17.9638875,14.241804 L20.4661341,14.241804 L20.1732401,16.9993343 L17.9638875,16.9993343 L17.9638875,25 L17.9638875,25 Z" id="Path" fill="#FFFFFF"></path>
                </g>
            </g>
        </g>
    </g>
</svg>