<?xml version="1.0" encoding="utf-8"?>
<!-- Generator: Adobe Illustrator 19.2.1, SVG Export Plug-In . SVG Version: 6.00 Build 0)  -->
<svg version="1.1" id="Layer_1" xmlns="http://www.w3.org/2000/svg" xmlns:xlink="http://www.w3.org/1999/xlink" x="0px" y="0px"
	 viewBox="0 0 28 28" style="enable-background:new 0 0 28 28;" xml:space="preserve">
<style type="text/css">
	.st0{fill:#0077B5;}
</style>
<path class="st0" d="M14,0C6.3,0,0,6.3,0,14s6.3,14,14,14s14-6.3,14-14S21.7,0,14,0z M10.6,19.8H7.7v-9.1h2.8v9.1H10.6z M9.1,9.6
	C8.2,9.6,7.6,9,7.6,8.2c0-0.8,0.6-1.4,1.5-1.4s1.5,0.6,1.5,1.4C10.7,8.9,10.1,9.6,9.1,9.6z M20.9,19.8h-2.8v-5.1c0-1.2-0.4-2-1.4-2
	c-0.8,0-1.2,0.5-1.5,1.1c-0.1,0.2-0.1,0.4-0.1,0.7v5.3h-2.8v-6.2c0-1.1,0-2.1-0.1-2.9h2.5l0.1,1.3h0.1c0.4-0.6,1.3-1.5,2.8-1.5
	c1.9,0,3.3,1.2,3.3,3.9v5.4H20.9z"/>
</svg>
