<?xml version="1.0" encoding="UTF-8"?>
<!-- Generator: Adobe Illustrator 14.0.0, SVG Export Plug-In . SVG Version: 6.00 Build 43363)  -->
<!DOCTYPE svg PUBLIC "-//W3C//DTD SVG 1.1//EN" "http://www.w3.org/Graphics/SVG/1.1/DTD/svg11.dtd">
<svg version="1.1" id="Layer_1" xmlns="http://www.w3.org/2000/svg" xmlns:xlink="http://www.w3.org/1999/xlink" x="0px" y="0px" width="720px" height="360px" viewBox="0 0 720 360" enable-background="new 0 0 720 360" xml:space="preserve">
<path fill="#FFFFFF" d="M450.303,91.022v94.153c0,28.52-7.435,47.215-22.304,56.08c-14.757,8.808-31.654,13.389-48.842,13.24  c-16.679-0.689-32.894-5.674-47.076-14.478c-14.28-8.826-21.42-27.106-21.42-54.843V91.022h41.958v102.451  c-0.715,7.979,2.408,15.822,8.416,21.125c5.463,4.458,12.308,6.872,19.36,6.827c7.092,0.045,13.994-2.299,19.596-6.649  c6.162-5.21,9.41-13.087,8.709-21.127V111.5c-0.039-5.398,2.079-10.588,5.884-14.417c3.863-3.973,9.234-6.114,14.77-5.885h20.95  V91.022z"/>
<path fill="#FFFFFF" d="M456.894,251.376v-77.792c-0.388-13.479,1.974-26.894,6.942-39.428c4.128-9.969,10.659-18.762,19.009-25.598  c7.953-6.202,17.081-10.727,26.832-13.3c10.314-2.825,20.964-4.251,31.66-4.236h5.884v42.781h-13.888  c-9.428-0.786-18.777,2.246-25.951,8.415c-6.174,7.395-9.14,16.947-8.239,26.54v82.385h-42.249V251.376z"/>
<path fill="#FFFFFF" d="M691.394,251.376h-21.067c-10.811,0.499-19.979-7.861-20.477-18.671c-0.03-0.602-0.03-1.204,0-1.808v-82.031  c0.71-8.04-2.54-15.922-8.71-21.126c-5.658-4.255-12.578-6.494-19.656-6.354c-7.007-0.077-13.827,2.271-19.3,6.649  c-6.005,5.302-9.13,13.146-8.415,21.125v102.215h-42.192v-94.154c0-27.46,7.141-45.742,21.42-54.843  c14.057-9.153,30.317-14.357,47.076-15.064c17.271-0.114,34.216,4.704,48.842,13.887c14.869,9.258,22.304,27.953,22.304,56.08  v94.153l0,0L691.394,251.376z"/>
<path fill="#FFFFFF" d="M258.994,1.87H42.5c-19.305,0-34.954,15.65-34.954,34.955l0,0l0,0v217.436  c0,13.063,0.47,103.392,0.47,103.392l54.845-68.438h196.132c19.305,0,34.954-15.649,34.954-34.953l0,0V36.825  c0-19.282-15.613-34.922-34.895-34.955l0,0H258.994z M226.335,250.141H82.28V64.482c-0.064-11.927,9.551-21.65,21.479-21.714  c0.021,0,0.04,0,0.06,0h21.302v168.769h101.215V250.141z"/>
<path fill="#FFFFFF" d="M685.449,86.431h-3.883V71.073h-5.062v-3.295h14.064v3.295h-5.062v15.358l0,0H685.449z"/>
<path fill="#FFFFFF" d="M701.279,86.431l-4.472-14.594l0,0c0,2.982,0,4.943,0,5.885v8.65h-3.472V67.777h5.355l4.413,14.241l0,0  l4.648-14.241h5.354v18.654h-3.708V76.192c0-0.549,0-2,0-4.354l0,0l-4.824,14.594h-3.53H701.279z"/>
</svg>