<?xml version="1.0" encoding="utf-8"?>
<svg version="1.1" xmlns="http://www.w3.org/2000/svg" xmlns:xlink="http://www.w3.org/1999/xlink" x="0" y="0"
	 viewBox="0 0 249 231" style="enable-background:new 0 0 249 231;" xml:space="preserve">
<g>
	<g>
		<g>
			<path fill="#AAAAAA" d="M133,220c-5.2,0-10.3,0-15.5,0c-3.5-0.6-7.1-1-10.5-1.7c-45.3-9-89.2-52.4-79.8-114.5c3-20.1,11.7-37.5,25.8-52.2
				c14.8-15.4,32.3-26,53.5-29.9c4-0.7,8-1.2,12.1-1.8c5.3,0,10.7,0,16,0c4.9,0.8,9.9,1.3,14.7,2.6c40.3,11.1,65.7,36.7,74.8,77.9
				c0.9,4.1,1.4,8.3,2,12.5c0,5.3,0,10.7,0,16c-0.5,3-0.9,6.1-1.5,9.1c-6.9,39.6-39.5,72.7-78.8,79.9
				C141.5,218.7,137.3,219.3,133,220z M110,74.8c-4.7,0-9,0-13.3,0c-1.4,0-1.6,0.7-1.6,1.9c0.1,9.7,0.1,19.5,0.2,29.2
				c0.1,6.7,0,13.5,0.7,20.2c1.7,15.8,16.6,29,35.6,26.1c18.6-2.9,29.5-19.6,25.8-37.9c-3.2-16.1-20.3-27.4-36.3-23.9
				c-3.8,0.8-7.4,2.3-11.2,3.5C110,87.8,110,81.6,110,74.8z M92.9,151.4c0-3.7,0-7.2,0-10.6c-0.1-8.4,0.6-16.9-0.4-25.2
				C90.2,97.3,72.6,86,54.7,90.2c-13.6,3.2-24.8,16.6-23.3,33.2c1.4,15,14.6,27.4,29.7,27.6c6,0.1,11.5-1.3,16.9-4
				c0.1,1.6,0.2,2.9,0.3,4.4C83.1,151.4,87.9,151.4,92.9,151.4z M220.4,117.7c-2-13.8-12.5-26.3-29.9-26.1
				c-18.1,0.2-29,13.8-30,28.4c-1.2,18,13,31.4,28.1,32.4c15.9,1.1,29.2-9.6,31.4-24.4c-3.5,0-7,0.1-10.5,0c-1.9-0.1-3,0.5-4,2.2
				c-3.5,5.8-8.6,9.1-15.6,8.8c-6.8-0.2-11.8-3.4-14.6-9.5c-2.9-6.5-2.5-12.8,2.2-18.4c4.3-5.2,10-7,16.5-5.8
				c6.2,1.1,10,5.2,12.6,10.6c0.4,0.7,1.1,1.7,1.7,1.7C212.4,117.7,216.4,117.7,220.4,117.7z"/>
			<path fill="#AAAAAA" d="M126.7,104.3c9.3-0.6,17.2,6.3,17.8,15.4c0.6,10.2-6.5,18.1-16.6,18.7c-9.2,0.5-16.8-6.6-17.3-16.2
				C110.1,114,115.2,104.4,126.7,104.3z"/>
			<path fill="#AAAAAA" d="M62.3,137.1c-9.6,0-17.2-7.5-17.2-16.7c0-9.6,7.4-16.8,17.3-16.7c9.3,0.1,16.6,7.5,16.5,16.7
				C78.8,129.8,71.5,137.1,62.3,137.1z"/>
		</g>
	</g>
</g>
</svg>
