<?xml version="1.0" encoding="utf-8"?>
<svg version="1.1" xmlns="http://www.w3.org/2000/svg" xmlns:xlink="http://www.w3.org/1999/xlink" x="0px" y="0px"
	 viewBox="0 0 468 230" style="enable-background:new 0 0 468 230;" xml:space="preserve">
<style type="text/css">
	.st3{font-family:'OpenSans-Bold'; font-size: 65px;}
</style>
<g>
	<g>
		<path fill="#AAAAAA" d="M120.7,34.1c3.3-6.9,8.5-10.7,16.2-10.8c8-0.1,13,4.1,16.2,11.5c1-1.9,1.9-3.6,3-5c4.5-5.6,12.7-7.9,20.1-5.5
			c7,2.3,11.3,8,11.4,15.6c0.1,16.6,0.1,33.2,0.1,49.7c0,2-0.8,2.8-2.9,2.8c-3.7,0-7.4,0-11.1,0c-2.3,0-3-0.7-3-3.1
			c0-13.6,0-27.1,0-40.7c0-1.4-0.1-2.7-0.4-4.1c-0.6-3.1-2.7-5-5.7-5.2c-3.9-0.4-7.3,1.6-8.6,4.9c-0.9,2.2-1.2,4.5-1.2,6.8
			c0,12.6,0,25.2,0,37.8c0,2.9-0.6,3.5-3.4,3.5c-3.5,0-7,0-10.5,0c-2.5,0-3.1-0.6-3.1-3.2c0-12.6,0-25.2,0-37.8
			c0-2.2-0.1-4.4-0.6-6.5c-0.8-3.5-2.9-5.4-6.3-5.7c-3.6-0.3-6.3,1.3-7.7,4.6c-1.2,3-1.4,6.1-1.4,9.3c0,11.9,0,23.7,0,35.6
			c0,3.3-0.5,3.8-3.8,3.8c-3.4,0-6.9,0-10.3,0c-2.3,0-3-0.8-3-3.1c0-20.5,0-41,0-61.5c0-2.5,0.8-3.3,3.3-3.3c3.2,0,6.4,0,9.7,0
			c2.5,0,3.2,0.8,3.3,3.4C120.7,30,120.7,32.1,120.7,34.1z"/>
		<path fill="#AAAAAA" d="M237,84.5c-3.8,3.8-7.7,7-12.8,8.1c-5.4,1.1-10.9,1.4-16.1-1c-6.8-3.1-9.5-8.9-9.9-16
			c-0.6-12.1,6.1-20.6,18.3-23.6c5.4-1.3,10.9-1.8,16.4-2.4c1.2-0.1,1.7-0.4,1.6-1.7c-0.1-1.4-0.1-2.7-0.1-4.1
			c-0.2-6.7-5.3-8.9-11-7.7c-3.6,0.7-6.1,3-7,6.7c-0.5,2.1-1.6,2.8-3.7,2.6c-3.4-0.4-6.8-0.8-10.2-1.2c-2-0.2-2.7-1.3-2.2-3.3
			c1.7-7.7,6.3-13.1,13.7-15.9c8-3,16.3-3.4,24.5-0.8c9.1,2.9,13.4,9,13.4,19c0,8.4,0.1,16.7,0,25.1c-0.1,4.2,1.1,7.7,3.7,11
			c2.4,3.1,2.3,3.4-0.6,6c-2.4,2.1-4.8,4.3-7.3,6.3c-1.9,1.6-3,1.5-4.8-0.1C240.6,89.7,238.8,87.2,237,84.5z M234.5,64.9
			c0-1.2-0.1-2.5,0-3.7c0.1-1.2-0.3-1.7-1.6-1.6c-3,0.2-6,0.4-8.9,1.5c-5.5,2-8.3,6.3-7.8,12c0.3,3.2,1.4,6.1,4.7,7.3
			c3.4,1.3,6.4,0.2,9-2.3C233.7,74.4,234.5,69.7,234.5,64.9z"/>
		<path fill="#AAAAAA" d="M90.2,55.2c0,4.8,0.1,8.7,0,12.6c-0.1,4.4,1.1,8.3,3.9,11.8c2.2,2.8,2,3.5-0.6,5.7c-2.6,2.2-5.1,4.4-7.6,6.6
			c-1.5,1.3-2.9,1.3-4.4,0c-2-1.8-3.9-3.7-5.2-6.1c-0.8-1.3-1.3-1.3-2.3-0.2c-6.4,6.8-14.4,8.8-23.4,7.2c-8.4-1.5-13.6-8-14.1-16.5
			c-0.8-13.6,6.8-22,20-24.7c4.9-1,9.9-1.5,14.8-2c1.4-0.1,1.5-0.6,1.5-1.7c-0.1-1.1,0-2.2,0-3.3c0.1-7-4.9-9.8-11.4-8.3
			c-3.6,0.8-5.9,3.1-6.7,6.7c-0.5,2-1.5,2.8-3.5,2.5c-3.3-0.4-6.7-0.8-10-1.2c-2.4-0.3-3.1-1.2-2.5-3.6c1.4-5.9,4.4-10.7,9.7-13.6
			c10.4-5.6,21.3-6.1,32.1-1.2c6,2.7,9,7.9,9.6,14.5C90.5,45.6,90.1,50.9,90.2,55.2z M72.8,64.5c0-5.1,0-5.1-5.1-4.6
			c-0.2,0-0.4,0-0.6,0c-8.3,0.8-12.7,5.3-12.4,12.8c0.1,3.2,1.2,6.1,4.4,7.5c3.4,1.4,6.5,0.5,9-2C72.1,74.5,72.9,69.7,72.8,64.5z"/>
		<path fill="#AAAAAA" d="M400.5,35.6c1.5-2.6,2.7-5.2,4.8-7.4c5-5.2,11.2-5.9,17.8-4.1c6.4,1.7,9.8,6.3,11.2,12.6
			c0.7,3.1,0.9,6.2,0.9,9.4c0,14.3,0,28.6,0,43c0,2.9-0.5,3.4-3.3,3.4c-3.6,0-7.1,0-10.7,0c-2.2,0-2.9-0.8-2.9-3
			c0-12.5,0-25.1,0-37.6c0-2.5-0.2-4.9-0.8-7.3c-0.7-2.7-2.2-4.6-5.1-5.3c-3-0.7-5.4,0.3-7.3,2.5c-2.2,2.5-2.8,5.6-3.2,8.7
			c-0.4,3.1-0.4,6.1-0.4,9.2c0,9.9,0,19.7,0,29.6c0,2.5-0.6,3.2-3.1,3.2c-3.6,0-7.3,0-10.9,0c-2.2,0-2.9-0.8-2.9-3
			c0-20.6,0-41.2,0-61.9c0-2.2,0.8-3,2.9-3c3.4,0,6.9-0.1,10.3,0c2.1,0,2.8,0.8,2.8,2.9C400.5,30.2,400.5,32.9,400.5,35.6z"/>
		<path fill="#AAAAAA" d="M319.1,58c0.2-8.9,1.8-17.9,8-25.4c6-7.4,13.9-10,23.2-9c10.7,1.2,17.8,7.4,21.6,17.1c5,13,5.1,26.1-1.4,38.6
			c-4.9,9.4-12.9,14.6-23.6,14.5c-11.6-0.1-19.3-6.1-24-16.4C320.1,71.4,319.3,65,319.1,58z M356.9,59c0-1.6,0.1-3.3,0-4.9
			c-0.2-4.2-0.6-8.4-2.1-12.5c-1.1-3-3.2-4.8-6.5-5.2c-3.7-0.4-6.4,1-8.2,4.2c-0.6,1.1-1,2.2-1.4,3.4c-1.8,7-1.4,14.1-1,21.2
			c0.2,3.6,0.8,7.2,2.3,10.5c1.8,3.8,4.7,5.4,8.6,4.7c3.6-0.7,5.4-3.3,6.5-6.5C356.9,69.1,357,64.1,356.9,59z"/>
		<path fill="#AAAAAA" d="M197.8,142.9c-39.3-0.4-73.9-13.2-103.5-39.1c-0.3-0.3-0.6-0.5-0.9-0.8c-0.8-0.9-1.4-1.8-0.5-2.9
			c0.8-1,1.9-0.8,3-0.3c2.9,1.5,5.7,3.2,8.7,4.7c18.4,9.5,37.8,15.9,58.2,19.7c16.2,3,32.6,4.1,49,3.1c23.4-1.4,46-6.6,67.8-15.6
			c0.3-0.1,0.5-0.2,0.8-0.3c2.1-0.8,4.1-0.3,4.9,1.1c0.8,1.5,0.3,3.1-1.6,4.5c-8.3,6.1-17.2,10.8-26.7,14.6
			c-15.9,6.3-32.4,10-49.6,11.1c-1.6,0.1-3.1,0.2-4.7,0.3C201,143,199.4,142.9,197.8,142.9z"/>
		<path fill="#AAAAAA" d="M288.2,70.2c6.1,0,11.8,0.6,17.3,2.5c1.9,0.7,3.8,1.5,5.6,2.5c1.5,0.8,2.2,2,2.2,3.6c0,3.2,0.1,6.3,0,9.5
			c0,2.3-1.5,3.1-3.6,2.1c-13.9-6.6-27.8-6.6-41.6,0.1c-2,1-3.5,0.2-3.5-2c-0.1-3.6,0-7.1,0-10.7c0-2.1,0.9-3.9,2.1-5.6
			c7.5-10.7,14.9-21.4,22.4-32.1c0.3-0.5,0.6-1,1.1-1.7c-6.7,0-13.1,0-19.5,0c-3.5,0-3.9-0.3-3.9-3.8c0-2.3,0-4.7,0-7
			c0-2.1,0.8-2.8,2.9-2.8c13.2,0,26.4,0,39.7,0c1.9,0,2.8,0.8,2.7,2.7c0,0.1,0,0.3,0,0.4c0.8,5.7-1.1,10.5-4.6,15.1
			C300.9,51.6,294.8,60.8,288.2,70.2z"/>
		<path fill="#AAAAAA" d="M289.3,95.2c3.9,0,7.8,0.3,11.5,1.5c2.2,0.7,3.4,2.1,3.3,4.3c-0.3,12.4-4.4,23.3-13.3,32.1
			c-0.3,0.3-0.7,0.6-1.1,0.9c-0.7,0.5-1.5,0.7-2.3,0.1c-0.7-0.6-0.4-1.4-0.1-2.1c1.9-4.7,3.8-9.5,5.2-14.4c0.8-2.7,1.5-5.4,1.6-8.2
			c0.1-3.1-0.7-4.2-3.7-5c-3.8-0.9-7.6-0.9-11.4-0.6c-4.1,0.3-8.2,0.8-12.3,1.1c-0.8,0.1-1.9,0.4-2.3-0.8c-0.3-1.1,0.5-1.8,1.3-2.4
			c4.9-3.4,10.4-5.1,16.2-5.9C284.4,95.3,286.8,95.2,289.3,95.2z"/>
	</g>
</g>
<rect x="33.8" y="155" fill="none" width="404" height="75"/>
<text fill="#AAAAAA" transform="matrix(1 0 0 1 38 204)" class="st3">BEST SELLER</text>
</svg>
