<?xml version="1.0" encoding="utf-8"?>
<svg version="1.1" xmlns="http://www.w3.org/2000/svg" xmlns:xlink="http://www.w3.org/1999/xlink" x="0px" y="0px"
	 viewBox="0 0 608.2 127.3" style="enable-background:new 0 0 608.2 127.3;" xml:space="preserve">
<g>
	<g>
		<path fill="#AAAAAA" d="M0,127.3C0,84.8,0,42.6,0,0c202.7,0,405.3,0,608.2,0c0,42.4,0,84.7,0,127.3C405.5,127.3,202.8,127.3,0,127.3z
			 M372.6,23.7c4.7,27.2,9.3,54,13.8,80.7c5.6,0,10.7,0,16.3,0c2.8-17.3,5.6-34.6,8.4-51.9c1,3.8,1.5,7.6,2.1,11.4
			c1.8,12.8,3.6,25.5,5.6,38.3c0.1,0.9,1.5,2.3,2.3,2.3c4.7,0.2,9.4,0.1,14.4,0.1c4.6-27,9.2-53.8,13.8-80.7c-5.3,0-10.2,0-15.2,0
			c-2.4,19-4.8,37.7-7.2,56.4c-0.1,0-0.2,0-0.4,0c-2.8-18.9-5.7-37.7-8.5-56.5c-5,0-9.5,0-14.1,0c-2.8,18.8-5.6,37.4-8.4,56
			c-0.2,0-0.3-0.1-0.5-0.1c-2.4-18.7-4.8-37.4-7.2-56C382.6,23.7,377.8,23.7,372.6,23.7z M28.3,23.6c0,27.2,0,53.8,0,80
			c10.5,0,20.7,0.5,30.9-0.2c6.6-0.4,11.5-4.6,12.8-11.4c0.9-4.7,0.7-9.6,0.9-14.5c0.4-8.1-2.5-14.2-11.4-16.7
			c8.8-2.8,11-9.2,10.7-17c-0.1-1.5,0-3.1-0.1-4.6c-0.4-8.5-5.6-14.9-14.1-15.4C48.1,23.1,38.3,23.6,28.3,23.6z M542.1,21.7
			c0,27.8,0,55.1,0,82.5c4.9,0,9.4,0,14.3,0c0-9.9,0-19.5,0-29.2c0.9,0.5,1.2,1.2,1.4,1.8c3.1,8.2,6.2,16.5,9.4,24.7
			c0.4,1.1,1.6,2.7,2.5,2.7c4.9,0.3,9.9,0.1,15.3,0.1c-4.7-11.3-8.9-22-13.6-32.6c-1.4-3.2-1.1-5.6,0.5-8.5c4-7,7.8-14.3,12.1-22.1
			c-3.5,0-6.3,0.3-9-0.1c-5.3-0.8-8.4,1.1-10.4,6.2c-2,5.3-5,10.1-7.6,15.2c-0.3-0.1-0.5-0.1-0.8-0.2c0-13.5,0-27,0-40.6
			C551.4,21.7,546.9,21.7,542.1,21.7z M211.1,104.2c0-1.7,0-3.1,0-4.5c0-13.2,0-26.4,0-39.6c0-4.7,2-7.1,5.6-7.2c3.5-0.1,5,2,5.1,7
			c0,13.3,0,26.7,0,40c0,1.4,0,2.7,0,4.2c5.2,0,9.8,0,14.7,0c0-17.9,0.2-35.6-0.1-53.2c-0.1-6.1-4.7-9.9-10.7-10.6
			c-5.6-0.7-10.1,1.4-14.4,5.4c-0.2-1.7-0.3-2.9-0.5-4.3c-4.8,0-9.5,0-14.4,0c0,21,0,41.8,0,62.8
			C201.4,104.2,205.9,104.2,211.1,104.2z M120.3,104.3c0-21.2,0-42,0-62.8c-4.9,0-9.6,0-14.4,0c-0.1,1.3-0.2,2.3-0.2,3.3
			c0,13.4,0,26.9,0,40.3c0,4.9-1.7,7.1-5.5,7.1c-3.6,0-5.1-1.9-5.1-6.9c0-10.1,0-20.2,0-30.4c0-4.4,0-8.9,0-13.5
			c-5.1,0-9.8,0-14.6,0c-0.1,0.9-0.2,1.6-0.2,2.4c0,15.9,0,31.8,0,47.6c0,5.3,1.5,10,6.6,12.4c5.4,2.5,10.7,1.8,15.5-1.7
			c1-0.7,1.9-1.4,3.1-2.3c0.2,1.9,0.4,3.1,0.5,4.5C110.8,104.3,115.3,104.3,120.3,104.3z M534.9,76c0-4.3,0-8.1,0-12
			c0-2.7,0.2-5.4-0.2-8.1c-1.4-10.5-7.1-15.5-19-15.9c-10.2-0.4-20.2,4.6-20.4,16.5c-0.2,11.2-0.2,22.5,0.2,33.7
			c0.3,7.3,4.7,12.4,11.9,14.1c3.3,0.8,6.8,0.9,10.2,0.8c11.5-0.2,19.7-8,16.5-23.7c-4.5,0-9.1,0-14,0c0,2.7,0.1,5.1,0,7.5
			c-0.1,3-1.3,5.2-4.6,5.5c-3.3,0.3-5.4-1.4-5.7-4.4c-0.4-4.6-0.1-9.3-0.1-14.2C518.3,76,526.3,76,534.9,76z M269.8,81.5
			c-0.4,3.5-0.5,6.6-1,9.5c-0.5,2.7-2.7,4.1-5.1,3.4c-1.8-0.5-4.3-2.2-4.5-3.7c-0.6-4.7-0.2-9.6-0.2-14.8c8.3,0,16.3,0,24.5,0
			c0-7.5,0.4-14.7-0.1-21.8c-0.6-8.3-6.4-12.9-17.4-13.9c-10.4-0.9-22,3.6-21.9,19c0.1,9.5-0.1,19,0.1,28.4
			c0.2,9.6,5.3,15.8,14.6,17.4c2.5,0.4,5.1,0.3,7.7,0.2c14-0.5,19.5-9.9,16.5-23.8C278.6,81.5,274.2,81.5,269.8,81.5z M488.8,76.1
			c0-7.5,0.3-14.4-0.1-21.3c-0.3-5.2-2.7-9.8-7.7-12c-3.3-1.4-7-2.6-10.6-2.7c-10.9-0.5-21.4,4.8-21,19.1c0.2,9.5,0,18.9,0.1,28.4
			c0,9.3,4.7,15.3,13.7,17.3c2.6,0.6,5.3,0.5,8,0.5c13.7-0.3,20.1-9.2,17.1-23.8c-4.4,0-8.8,0-13.3,0c-0.3,3-0.4,5.8-0.8,8.6
			c-0.4,3-2.2,4.5-5.3,4.4c-2.9-0.1-4.6-1.7-4.8-4.5c-0.4-4.5-0.6-9.1-0.8-14C472.1,76.1,480.2,76.1,488.8,76.1z M347.3,81.3
			c-3.7,0-7,0-10.3,0c-1.1,0-2.2,0.1-3.8,0.2c0,3.4-0.1,6.5,0,9.7c0.3,6.8,4,11.7,10.7,13.2c3.7,0.8,7.6,0.9,11.4,0.8
			c8.1-0.2,14.7-5,16.6-11.8c2.5-8.9,0.1-16.4-7.2-21.3c-4.1-2.8-8.5-5.2-12.7-8c-1.3-0.9-3.2-2.1-3.4-3.4c-0.4-2.7-0.3-5.8,0.6-8.3
			c0.3-1,3.7-1.6,5.3-1.2c3.1,0.8,3.3,3.9,3.2,6.7c0,1.9,0,3.7,0,5.6c5.1,0,9.6,0,14.5,0c0-2.8,0.1-5.4,0-7.9
			c-0.5-7.1-3.4-12.8-10.9-14.4c-3.9-0.9-8.1-1-12.1-0.8c-8,0.4-14.5,5.3-15.7,12.3c-1.4,8.4-0.8,15.1,7.3,20.7
			c4.1,2.8,8.6,5,12.7,7.9c1.8,1.3,3.5,3.5,4.1,5.6c1.2,4.1-0.9,7.2-4.2,7.6c-3.9,0.4-6-1.8-6.2-6.4
			C347.3,85.9,347.3,83.8,347.3,81.3z M328.5,63.6c0-3.2,0.2-6.1,0-9c-0.6-7.1-4.3-12.1-11.4-13.6c-3.7-0.8-7.6-0.8-11.4-0.5
			c-8.2,0.5-14.7,5.4-15.9,12.6c-1.3,8-0.6,15.3,7.9,20.7c3.9,2.5,7.9,4.7,11.8,7.2c1.2,0.7,2.5,1.6,3.2,2.7
			c1.9,2.9,2.4,6.3,0.2,8.9c-1.1,1.3-3.9,1.9-5.7,1.6c-3.5-0.7-3.5-4-3.6-6.8c-0.1-1.9,0-3.8,0-5.8c-4.9,0-9.4,0-14.1,0
			c0,3.4-0.1,6.4,0,9.5c0.3,6.8,4,12,10.6,13.3c4.6,0.9,9.5,1.2,14.1,0.6c8.1-1.1,13.3-6.3,14.6-13.2c1.7-8.6-1.1-15.3-8.5-20.2
			c-4.1-2.7-8.2-5.2-12.4-7.7c-2.8-1.7-3.9-4.2-3.8-7.4c0.1-3.5,1.9-5.6,4.9-5.7c2.9-0.1,5,2,5.1,5.5c0.1,2.4,0,4.8,0,7.4
			C319,63.6,323.4,63.6,328.5,63.6z M127.2,81.4c0,3.1,0,5.8,0,8.5c0.1,8,4,13,11.8,14.7c3.3,0.7,6.9,0.7,10.3,0.6
			c8.4-0.2,15.2-4.8,16.7-12.1c2.1-9.8,0.6-15.8-7.3-21.2c-4-2.7-8.2-5.2-12.4-7.7c-3.3-2-4.8-4.8-4.4-8.7c0.3-3,2.1-4.7,4.9-4.9
			c3-0.2,4.7,1.6,4.9,4.7c0.2,2.6,0.3,5.3,0.5,8.4c2.5,0,4.8,0,7.1,0c2.3,0,4.5,0,7.4,0c-0.3-4.2-0.3-7.9-0.9-11.5
			c-1.2-6.6-5.7-10.9-12.4-11.8c-3-0.4-6.1-0.4-9.1-0.2c-9.5,0.8-15,5.2-16.8,13c-2,8.8,1.3,16.3,9.3,21.2c3.7,2.3,7.4,4.6,11.1,6.8
			c2.9,1.8,4.2,4.3,4.1,7.7c-0.1,3-1.3,5.2-4.6,5.5c-3.2,0.2-5.2-1.1-5.6-4.4c-0.4-2.9-0.6-5.7-0.9-8.7
			C136.3,81.4,132,81.4,127.2,81.4z M187.2,104.3c0-21.1,0-41.9,0-62.8c-4.8,0-9.3,0-14.1,0c0,21,0,41.8,0,62.8
			C177.8,104.3,182.4,104.3,187.2,104.3z M187.2,21.5c-4.3,0-8.3-0.1-12.3,0.1c-0.7,0-1.9,1.3-1.9,2.1c-0.2,3.2-0.2,6.4,0,9.6
			c0.1,0.8,1.1,2.3,1.7,2.3c4.2,0.2,8.3,0.1,12.6,0.1C187.2,30.8,187.2,26.4,187.2,21.5z"/>
		<path fill="#AAAAAA" d="M43,92.5c0-8.4,0-16.4,0-24.3c0.4-0.2,0.6-0.4,0.8-0.5c12.3-0.9,14.1,0.8,14.1,13c0,9.9-2.3,12.2-12.2,11.9
			C44.9,92.6,44.1,92.6,43,92.5z"/>
		<path fill="#AAAAAA" d="M43,55.7c0-7,0-13.5,0-20.4c4.1,0.4,8.5-1.9,11.9,2c2,2.3,2.4,12.4,0.5,15.2C52.4,57,47.7,55.5,43,55.7z"/>
		<path fill="#AAAAAA" d="M519.9,65.1c-3.4,0-6.6,0-10.3,0c0-3.2-0.2-6.2,0-9.3c0.2-3.2,2.8-5.4,5.6-5.1c3.1,0.3,4.8,2.2,4.9,5.3
			c0,2.4,0,4.9,0,7.3C520.2,63.9,520,64.4,519.9,65.1z"/>
		<path fill="#AAAAAA" d="M269.8,65.1c-4,0-7.3,0-10.9,0c0-3.6-0.5-7,0.2-10.3c0.3-1.6,2.8-3.8,4.3-3.8c1.8-0.1,4.7,1.6,5.2,3.1
			C269.6,57.4,269.4,61.1,269.8,65.1z"/>
		<path fill="#AAAAAA" d="M474.9,65.1c-4,0-7.3,0-11.5,0c0.3-3.5,0-7.1,1-10.4c0.5-1.6,3.1-3.7,4.8-3.7c1.7,0,4.3,2,4.8,3.7
			C474.9,57.9,474.6,61.4,474.9,65.1z"/>
		<path fill="#AAAAAA" d="M163.7,34.1c-1.1-1.4-2.3-2.3-2.3-3.3c0-0.8,1.5-2.5,2-2.4c1.1,0.3,2.4,1.3,2.7,2.3
			C166.2,31.6,164.8,32.7,163.7,34.1z"/>
		<path fill="#AAAAAA" d="M135.4,34.7c-1.2-1.9-2.3-3-2.3-4.1c0-0.8,1.5-2.1,2.4-2.1c0.8,0,2.3,1.4,2.2,2.2
			C137.7,31.7,136.6,32.8,135.4,34.7z"/>
		<path fill="#AAAAAA" d="M99.9,31c-1.5,1.1-2.7,2.6-3.2,2.3c-1-0.5-2-1.7-2.2-2.8c-0.1-0.5,1.5-2,2.4-2C97.6,28.5,98.5,29.8,99.9,31z"
			/>
		<path fill="#AAAAAA" d="M111.3,30.9c-1.7,1.2-2.7,2.4-3.7,2.4c-0.8,0-2.3-1.7-2.2-2.4c0.2-1,1.5-2.2,2.6-2.4
			C108.7,28.4,109.7,29.7,111.3,30.9z"/>
	</g>
</g>
</svg>
