<?xml version="1.0" encoding="utf-8"?>
<!-- Generator: Adobe Illustrator 21.0.2, SVG Export Plug-In . SVG Version: 6.00 Build 0)  -->
<svg version="1.1" xmlns="http://www.w3.org/2000/svg" xmlns:xlink="http://www.w3.org/1999/xlink" x="0px" y="0px"
	 viewBox="0 0 501 193" style="enable-background:new 0 0 501 193;" xml:space="preserve">
<g>
	<g>
		<path fill="#AAAAAA" d="M86.2,166.2c-1.4-0.5-3-0.4-4.5-0.7c-11.8-1.7-22.4-6.2-31.7-13.6c-14.1-11.1-22.6-25.7-25.9-43.3
			c-5-26.6,5.8-54,27.6-70c9-6.6,19-10.6,30-12.2c30.7-4.4,58.8,12.2,71.2,39.1c5,10.8,7.2,22.2,6.5,34.1
			c-1.1,18.7-8.1,34.9-21.7,48c-9.9,9.6-21.7,15.4-35.3,17.7c-2,0.3-3.9,0.6-5.9,0.7c-0.2,0-0.4,0-0.5,0.2
			C92.9,166.2,89.6,166.2,86.2,166.2z M89,136.5c9.7,0,16.9-1,23.8-3.4c18.9-6.4,32.7-18.8,41.7-36.5c0.3-0.6,0.3-1.1,0-1.7
			c-4.3-8.6-10-16-17.3-22.2c-17.7-14.9-38-20.4-60.6-15.5c-22,4.8-37.9,18-48.3,37.9c-0.3,0.5-0.2,0.9,0,1.5
			c2.3,4.8,5.1,9.2,8.4,13.3C50.8,127.1,69,136.1,89,136.5z"/>
		<path fill="#AAAAAA" d="M358.9,92.6c4.6,1.8,8.9,4,12.7,7.3c5,4.4,7.8,10,8.6,16.6c0.7,5.7,0.4,11.3-1.5,16.7
			c-2.5,6.8-7.1,11.7-13.4,15.2c-5.8,3.2-12,4.7-18.5,5.5c-3.9,0.5-7.7,0.5-11.6,0.5c-17.5,0-35,0-52.5,0c-1,0-1.2-0.3-1.2-1.3
			c0-38.6,0-77.1,0-115.7c0-1,0.2-1.3,1.2-1.3c18.3,0,36.6,0,54.9,0.1c7.3,0,14.4,1.4,20.9,4.8c10.5,5.6,15.7,14.4,15.6,26.3
			c-0.1,6.7-1.9,12.9-6.3,18c-2.2,2.6-4.9,4.7-7.8,6.5C359.5,92,359.1,92.1,358.9,92.6z M323.4,131.4c4.5,0,9.1,0,13.6,0
			c2.8,0,5.6-0.2,8.3-1c5.2-1.4,8.9-4.3,9.6-10c0.6-5.5-1.1-10.3-6.8-12.9c-3.2-1.4-6.5-2-10-2c-10.2-0.1-20.4,0-30.7-0.1
			c-0.9,0-1,0.3-1,1.1c0,7.9,0,15.8,0,23.8c0,0.9,0.2,1.1,1.1,1.1C312.8,131.4,318.1,131.4,323.4,131.4z M320.8,59
			C320.8,59,320.8,58.9,320.8,59c-4.4-0.1-8.8,0-13.3-0.1c-0.8,0-1.2,0.1-1.2,1.1c0,7.6,0,15.2,0,22.8c0,0.8,0.2,1.1,1.1,1.1
			c7.3,0,14.7,0,22,0c3,0,6-0.2,8.9-0.9c5.5-1.4,9.4-4.3,10.1-10c0.6-5.2-1.2-9.8-6.6-12.2c-2.6-1.2-5.4-1.7-8.3-1.8
			C329.3,58.9,325.1,59,320.8,59z"/>
		<path fill="#AAAAAA" d="M434.5,156c-8.8,0-17.4-1.5-25.7-4.6c-8.4-3.1-16-7.6-22.7-13.5c-0.7-0.6-0.7-1-0.1-1.7
			c4.6-5.5,9.1-11,13.6-16.5c0.8-1,1.2-0.8,2-0.1c4.4,3.7,9.2,6.9,14.5,9.2c7.3,3.3,15,4.8,23.1,4c3.7-0.4,7.2-1.5,10.1-4.1
			c3.7-3.3,4.2-11.3-0.8-14.7c-3.2-2.2-6.8-3.5-10.4-4.7c-5.6-1.9-11.3-3.2-17-4.8c-6.4-1.9-12.7-4.1-18.4-7.9
			c-6.2-4.1-10.2-9.7-11.7-17c-1.5-7.3-1.5-14.6,1.1-21.7c3.6-10,10.8-16.5,20.6-20.3c6.4-2.5,13.1-3.4,20-3.2
			c9.1,0.3,17.9,2,26.2,5.7c5.3,2.3,10.1,5.3,14.6,8.8c0.5,0.4,0.5,0.7,0.2,1.2c-4.1,6.1-8.2,12.1-12.3,18.2
			c-0.4,0.6-0.7,0.7-1.3,0.3c-5.3-3.7-10.9-6.9-17-9c-5.7-1.9-11.4-2.9-17.4-1.8c-1.7,0.3-3.3,0.8-4.9,1.7c-3.2,1.8-5.1,4.5-5.2,8.3
			c-0.1,4.1,1.7,7,5.2,8.9c4.6,2.5,9.5,3.9,14.5,5.3c7.3,2,14.7,3.8,21.6,6.9c5.3,2.4,10.1,5.3,14,9.7c3.9,4.5,6,9.8,6.6,15.6
			c0.6,5.5,0.3,11-1.3,16.4c-2.7,9.2-8.6,15.8-17.1,20.1c-7.3,3.7-15.2,5.1-23.4,5.2C435.2,156,434.8,156,434.5,156z"/>
		<path fill="#AAAAAA" d="M164.2,95.4c0.2-15,4.5-28.5,14.1-40.1c8.7-10.5,19.9-17.1,33.3-19.8c12.3-2.5,24.4-1.8,36.3,2.1
			c8.7,2.8,16,7.9,22.5,14.3c0.4,0.4,0.4,0.6,0,1c-5.2,6-10.3,12.1-15.5,18.2c-0.6,0.7-0.8,0.1-1.1-0.1c-3.7-3.4-7.7-6.5-12.3-8.7
			c-10.6-5.1-21.3-5.8-31.9-0.3c-9.1,4.7-14.7,12.4-17.2,22.2c-3.1,12.2-1.6,23.8,5.6,34.3c6.3,9.1,15.1,13.8,26.2,14.1
			c10.4,0.3,19.2-3.6,27-10.2c1.2-1,2.5-2.1,3.6-3.2c0.4-0.4,0.6-0.4,1,0c5.1,5.2,10.3,10.5,15.4,15.7c0.4,0.4,0.3,0.6,0,1
			c-7.5,8.2-16.2,14.6-27,17.9c-7.1,2.2-14.4,2.9-21.8,2.7c-17.6-0.5-32.4-7.2-43.9-20.6c-6.7-7.8-10.9-16.9-13-27
			C164.7,104.3,164.3,99.8,164.2,95.4z"/>
		<path fill="#AAAAAA" d="M91.4,133.2c-17.2-0.1-32.1-12.1-35.8-29.1c-3.9-17.5,4.8-34.9,21-42.3c16.7-7.6,36.8-1.1,46.2,14.9
			c9.3,15.8,5.9,36.1-8,48C108.4,130.1,99.8,133.2,91.4,133.2z"/>
	</g>
</g>
</svg>
