<?xml version="1.0" encoding="utf-8"?>
<!-- Generator: Adobe Illustrator 21.0.2, SVG Export Plug-In . SVG Version: 6.00 Build 0)  -->
<svg version="1.1" id="Layer_1" xmlns="http://www.w3.org/2000/svg" xmlns:xlink="http://www.w3.org/1999/xlink" x="0px" y="0px"
	 viewBox="0 0 636 176" style="enable-background:new 0 0 636 176;" xml:space="preserve">
<g>
	<g>
		<path fill="#AAAAAA" d="M44.9,120c-8.1,0-16.3,0-24.4,0c-3.1,0-3.7-0.8-3.4-3.9c0-0.1,0-0.2,0-0.3c0.7-5,0.6-5.1,5.6-6.2c2.2-0.5,2.2-1.8,2.2-3.5
			c0-15.4,0-30.7,0-46.1c0-5.6-0.1-11.1,0-16.7c0.1-2.6-1.1-3.6-3.5-3.9c-1.6-0.1-3.8,0.7-4.5-1.3c-0.8-2.3-0.4-4.9,0.3-7.3
			c0.4-1.4,2.1-1,3.3-1c9.5,0,18.9,0,28.4,0c6.3,0,12.5,0,18.8,0c3.6,0,3.8,0.3,3.8,4c0,5.7-1.3,11.2-1.1,16.9c0.1,1.5-0.9,2-2.2,2
			c-1.9,0-3.7,0-5.6,0c-4.2,0-4.4-0.2-4.8-4.4c-0.2-2.1-0.2-4.2-0.2-6.4c0-1.7-0.6-2.6-2.5-2.6c-3.4,0.1-6.7,0-10.1,0
			c-1.5,0-2.3,0.7-2.3,2.2c0,8.6,0,17.1,0,25.7c0,1.5,0.7,2.3,2.2,2.2c1.5-0.1,3.4,0.6,3.6-1.9c0-0.1,0-0.2,0-0.3
			c1-5.1,3.4-6.5,8.4-5.1c1.3,0.4,1.6,1.2,1.6,2.4c0,6.2,0,12.4,0,18.5c0,1.8-1,2.7-2.8,2.8c-5.1,0.4-6.3-0.3-7.1-5.4
			c-0.5-3-2.5-2.4-4.3-2.4c-2.4,0-1.6,1.8-1.7,3.1c0,8.7,0,17.3,0,26c0,2.4,0.8,3.4,3.2,3.2c3.1-0.1,6.2-0.1,9.3,0
			c1.5,0,2.3-0.5,2.4-2.1c0.4-3.1,1.1-6.2,1.1-9.5c0-2.6,0.9-3.2,3.5-3c2.2,0.2,4.4,0.2,6.6,0.2c1.7,0,2.7,0.7,2.9,2.4
			c0.7,6.4,1,12.8,0.8,19.3c-0.1,2.1-1.6,2.2-3.2,2.2C61.3,120,53.1,120,44.9,120z"/>
		<path fill="#AAAAAA" d="M274.8,150.1c-3.7,0-7.4,0-11.1,0c-2,0-2.8-0.9-2.9-2.9c-0.1-4.5-0.1-4.7,4.1-5.7c1.1-0.3,1.7-0.9,1.7-2
			c0-0.7,0-1.4,0-2.1c0-22.2,0-44.5,0.1-66.7c0-2.6-0.7-3.8-3.4-4.2c-3.7-0.6-3.6-1-3.6-5.1c0-2.8,1.7-3.4,3.9-3.6
			c4.5-0.6,8.9-1.1,13.4-1.7c2.2-0.3,2.9,1,3.2,2.7c0.5,2.3,1.3,2.4,3.1,1c8.6-6.6,20-5.6,26.3,2.4c2.1,2.7,3.6,5.9,4.3,9.3
			c2.5,12.1,2.8,24.2-1.2,36c-3.7,10.8-14.3,14.9-24.3,13.2c-5.3-0.9-5.3-1-5.3,4.6c0,4.3,0.1,8.7,0,13c0,2.2,0.7,3.6,3.2,3.5
			c2.2,0,3,1.2,2.8,3.2c-0.1,0.7-0.1,1.4,0,2.1c0.1,2.2-0.9,3.2-3.1,3.2C282.2,150.1,278.5,150.1,274.8,150.1z M283.2,89.5
			c0,4.9,0,9.7,0,14.6c0,5.5,0.7,6.3,6.4,6.3c1,0,1.9,0,2.9-0.1c4-0.5,5.2-2.1,6-6c1.6-8.1,0.9-16.2,0.9-24.3c0-3.2-0.9-6.3-2.2-9.2
			c-1.5-3.4-5.3-4.8-10-3.7c-2.6,0.6-4.1,3-4.1,6.6C283.1,78.9,283.2,84.2,283.2,89.5z"/>
		<path fill="#AAAAAA" d="M445.3,95.8c0-7.1,0.1-14.1,0-21.2c-0.1-4.3-2.5-6.5-6.7-6.6c-4.7,0-6.5,1.7-6.5,6.3c0,11,0,22.1-0.1,33.1
			c0,2.3,0.8,3.3,3,3.8c3.2,0.8,4.5,4.6,2.8,7.4c-0.6,1-1.5,1.2-2.5,1.2c-7.7,0-15.4,0-23,0c-1.6,0-2.4-0.9-2.5-2.4
			c-0.2-4.8-0.2-5.9,3.8-6.3c1.8-0.2,2.4-1.4,2.4-3.2c0-12.4,0-24.9,0-37.3c0-2.5-1.2-3.5-3.5-3.6c-3.5-0.2-3.8-0.6-3.8-3.9
			c0-3.8,0.5-4.3,3.8-4.7c3.7-0.5,7.5-1.1,11.2-1.8c2.4-0.5,4.2-0.3,5,2.3c0.6,1.9,1.5,1.7,3,0.7c5.9-4.1,12.3-5.4,19.3-3
			c6.5,2.2,10.4,8,10.5,16.5c0.2,11.6,0.1,23.1,0,34.7c0,2.1,0.4,3,2.5,3.5c4,1,4.9,2.9,3.9,6.9c-0.4,1.4-1.3,1.8-2.5,1.8
			c-5.7,0-11.5,0-17.2,0c-2.5,0-2.9-1.5-2.9-3.5C445.3,109.6,445.3,102.7,445.3,95.8C445.3,95.8,445.3,95.8,445.3,95.8z"/>
		<path fill="#AAAAAA" d="M111.9,95.8c0-6.7,0-13.4,0-20.1c0-5.3-2.9-7.9-8.2-7.6c-3.1,0.2-4.9,1.8-4.9,4.8c-0.1,11.8,0,23.7-0.1,35.5
			c0,2.1,1.4,2.6,3,3c3,0.8,3.3,1.7,2.9,6.2c-0.3,2.6-2.1,2.4-3.9,2.4c-7,0-14,0-20.9,0c-1.5,0-3,0.1-3.4-2.1
			c-0.5-3.6,0-5.8,2.2-6.2c3.2-0.5,3.8-2.2,3.8-5.2c-0.2-11.7-0.1-23.5-0.1-35.2c0-3.6-0.3-4-3.9-4.1c-2.2-0.1-3.1-1-3.1-3.2
			c0-4.3,0.2-5,3-5.4c4.1-0.6,8.2-1.3,12.3-2c2.2-0.4,4.1-0.3,4.6,2.5c0.3,1.7,1.3,1.9,2.7,0.8c3.2-2.6,7-4,10.9-4.3
			c9.3-0.9,18.9,4.5,19.1,15.8c0.3,11.9,0.1,23.8,0,35.8c0,2.6,0.8,3.8,3.3,4.3c3,0.6,3.6,1.6,3.3,4.6c-0.4,3.5-0.9,3.9-4.2,3.9
			c-5,0-10.1-0.1-15.1,0c-2.4,0-3.3-0.9-3.3-3.3C111.9,109.7,111.9,102.7,111.9,95.8C111.9,95.8,111.9,95.8,111.9,95.8z"/>
		<path fill="#AAAAAA" d="M570.9,85.4c0,7.3,0.1,14.7,0,22c0,2.4,0.7,3.6,3.1,4c1.7,0.2,3.7,0.4,3.1,2.9c-1.2,5.3-0.5,5.6-4.2,5.6
			c-4.1,0-8.1,0-12.2,0c-1.8,0-3.2-0.5-3.7-2.3c-0.6-2.1-1.4-1.5-2.7-0.6c-7.6,5.6-18.9,5.1-25.4-1.2c-3.7-3.5-5-8.1-5.1-13
			c-0.1-11.1-0.1-22.3,0-33.4c0-2.7-0.7-3.9-3.5-3.7c-2.2,0.1-3.4-0.9-3.4-3.3c0-3.6,0.3-4.4,3.1-4.7c5.3-0.7,10.7-1.2,16-1.8
			c1.4-0.2,2.3,0.4,2.8,1.8c0.7,1.9,1.1,3.9,1.1,5.9c0,11.9,0,23.8,0,35.8c0,2.1,0.4,4,1.1,5.9c1.2,3.3,4.6,4.9,8.8,4.1
			c3.5-0.6,4.8-2.3,4.8-6.4c0-11.3-0.1-22.6,0-33.9c0-2.4-0.6-3.5-3.3-3.5c-3,0-4-1.1-4.1-4c-0.1-2.7,0.6-3.7,3.6-4.1
			c5.3-0.7,10.7-1.2,16-1.7c1.4-0.2,2.4,0.4,2.9,1.8c0.7,1.9,1.2,3.8,1.2,5.9C570.9,70.9,570.9,78.2,570.9,85.4z"/>
		<path fill="#AAAAAA" d="M244.1,92.5c-4.2,0-8.3,0-12.5,0c-1.8,0-2.4,0.5-2.3,2.5c0.2,3.4,1.1,6.6,2.8,9.5c1.9,3.3,4.8,5.1,8.6,5.3
			c4.2,0.3,8.3-0.3,12.1-2c1.8-0.8,2.8-0.4,3.5,1.4c0.3,0.8,0.6,1.7,1,2.4c1,1.7,0.5,2.8-1,3.8c-15.1,9.6-36.8,7.8-42.9-15
			c-2.8-10.4-2.3-20.8,2.1-30.8c6.6-14.9,25.3-18.8,36.2-8.9c4,3.6,5.9,8.3,7.3,13.2c1.3,4.4,1.5,8.9,1.2,13.4
			c-0.3,4.8-1.8,5.3-5.2,5.2C251.5,92.3,247.8,92.4,244.1,92.5C244.1,92.5,244.1,92.5,244.1,92.5z M234.8,83.9
			c2.7,0.4,5.7-0.6,8.8-0.6c1.1,0,1.9-0.5,1.9-1.7c-0.1-5.2-0.7-10.2-4.5-14.2c-2.8-3-7.5-2-9.1,1.8c-1.3,3-2,6.1-2.4,9.4
			C229,83.9,228.8,83.9,234.8,83.9z"/>
		<path fill="#AAAAAA" d="M500.8,92.5c-4.2,0-8.3,0.1-12.5,0c-1.9,0-2.9,0.8-2.6,2.7c0.7,4.7,1.8,9.2,5.7,12.4c4.5,3.6,9.7,2.5,14.7,1.5
			c0.8-0.2,1.5-0.4,2.2-0.8c2.2-1,3.9-1.2,5,1.6c1.4,3.6,1.4,4.6-1.4,6.2c-8.4,4.9-17.3,6.5-26.6,2.9c-7.4-2.8-11.9-8.6-14.3-15.8
			c-4.1-12.3-3.7-24.6,2.7-36.1c4.8-8.6,12.7-12.4,22.4-11.8c8.7,0.5,14.6,5.6,18,13.6c2.3,5.3,3.2,11,3.4,16.8
			c0.1,1.4-0.3,2.8-0.8,4.1c-0.6,1.8-1.8,2.6-3.8,2.6C508.9,92.4,504.8,92.4,500.8,92.5C500.8,92.5,500.8,92.5,500.8,92.5z
			 M491.8,83.9c1.5,0,3.4-0.1,5.3-0.4c5.2-0.7,5.1-0.6,4.5-6c-0.4-3.5-1.2-6.8-3.4-9.5c-2.8-3.5-8.1-2.7-9.9,1.4
			c-1.1,2.7-1.6,5.6-2.3,8.4c-1.3,5.4-0.7,6.2,4.8,6.2C490.9,83.9,491.1,83.9,491.8,83.9z"/>
		<path fill="#AAAAAA" d="M392.6,92.5c-4.1,0-8.3,0-12.4,0c-2,0-2.6,0.6-2.2,2.7c0.8,3.5,1.3,7.1,3.5,10.1c2.1,2.8,4.7,4.4,8.2,4.5
			c4,0.2,8-0.1,11.6-1.9c2.2-1,3.3-0.3,4,1.7c0.3,0.9,0.7,1.8,1.2,2.7c0.6,1.2,0.2,2.1-0.8,2.7c-9.1,6.2-22.9,8.6-33.1,1.3
			c-6.7-4.8-9.5-11.8-11.1-19.5c-1.2-5.8-1.3-11.7,0-17.6c2.1-9.7,5.9-18.2,15.9-22.2c12.5-5,25.1,0.2,29.7,13.7
			c1.7,5.1,2.6,10.4,2.4,15.8c-0.2,4.8-1.1,5.8-5.7,5.8c-1.9,0-3.7,0-5.6,0C396.3,92.4,394.4,92.4,392.6,92.5
			C392.6,92.5,392.6,92.5,392.6,92.5z M383.8,83.9c2.5,0.4,5.6-0.6,8.6-0.6c1.1,0,2-0.5,1.9-1.7c-0.3-5-0.9-10.1-4.3-14.1
			c-2.6-3.1-7.8-2-9.4,1.7c-1.2,2.8-1.8,5.7-2.3,8.6C377.2,83.9,377.1,83.9,383.8,83.9z"/>
		<path fill="#AAAAAA" d="M601.7,90c0,5.9,0.1,11.8,0,17.7c-0.1,2.3,0.8,3.5,3,3.8c2.3,0.3,3.4,1.4,3,3.9c-0.7,4.3-0.7,4.4-4,4.4
			c-7.1,0-14.1,0-21.2,0c-1.6,0-3.3,0.1-3.5-2.2c-0.3-2.8,0.8-5.6,2.6-6c2.5-0.5,3.2-1.8,3.2-4.3c-0.1-12.1,0-24.2,0-36.3
			c0-3.7-0.2-3.9-3.8-4.2c-1.7-0.2-2.6-0.9-2.6-2.6c0-1.1,0-2.3,0-3.4c0.1-1.6,1-2.3,2.5-2.5c4.5-0.7,9.1-1,13.6-2
			c2-0.5,3.7-0.1,4.1,2.4c0.3,1.8,1.4,2,2.9,1.2c4.4-2.3,9.1-3.8,14.2-3.8c3.3,0,5.1,2,4.8,5.2c-0.4,4.3-0.8,8.6-1.3,12.9
			c-0.1,1.5-0.9,2.4-2.5,2.6c-2.6,0.3-5.1-0.4-7.6-0.6c-1-0.1-1.4-0.9-1.6-1.8c-0.3-1.2-0.5-2.4-0.8-3.6c-0.3-1.1,0.2-3-2-2.7
			c-1.9,0.3-3,1.1-3,3.3c0.1,3.7,0,7.4,0,11.1C601.7,85.1,601.7,87.6,601.7,90z"/>
		<path fill="#AAAAAA" d="M176,89.2c0-6.1,0-12.2,0-18.3c0-3.3-0.4-3.8-3.5-3.9c-2.3-0.1-3.3-1-3.3-3.4c0-4.1,0.5-4.9,3.2-5.3
			c4.3-0.6,8.6-1.1,12.8-1.9c2.5-0.4,4.2,0,4.7,2.8c0.3,1.9,1.3,1.4,2.4,0.8c4.4-2.4,9.1-3.9,14.1-3.8c3.6,0,5.5,2,5.2,5.5
			c-0.3,4-0.8,7.9-1.2,11.8c-0.3,2.4-1.5,3.7-4.1,3.4c-1.9-0.2-3.9-0.4-5.8-0.6c-1.4-0.2-2.2-1.1-2.4-2.4c-0.2-0.9-0.1-1.9-0.3-2.9
			c-0.2-1.2,0.5-3-1.7-2.9c-1.7,0.1-3.3,0.7-3.5,2.9c-0.1,0.6,0,1.2,0,1.9c0,11.4,0.1,22.8-0.1,34.2c0,2.7,1,4,3.5,4.6
			c2.7,0.6,3.2,1.8,2.8,5.4c-0.3,2.3-1.6,2.8-3.7,2.8c-7.2,0-14.3,0-21.5,0c-1.5,0-3.1,0.1-3.4-2c-0.5-3.2,0.2-5.7,2.3-6.1
			c3.1-0.6,3.6-2.4,3.5-5.1C175.9,100.9,176,95.1,176,89.2z"/>
		<path fill="#AAAAAA" d="M341.1,90.1c0,5.7,0.1,11.5-0.1,17.2c-0.1,2.5,0.8,3.7,3.2,4.2c3.4,0.7,4.7,4.3,2.9,7.2c-0.6,1-1.5,1.2-2.5,1.2
			c-7.6,0-15.2,0-22.8,0c-1.8,0-2.5-0.8-2.7-2.5c-0.4-3.8,0.1-4.7,3.9-6.1c1.2-0.5,1.9-1.2,1.9-2.5c0-13,0-25.9,0-38.9
			c0-2.2-1.4-2.6-3.1-2.8c-3.6-0.4-3.7-0.5-3.7-4.2c0-3.7,0.4-4,4-4.5c3.9-0.5,7.9-1,11.8-1.8c2.4-0.5,4,0,4.6,2.4
			c0.5,1.9,1.2,1.9,2.8,1c4.4-2.4,9.1-3.9,14.1-3.8c3.6,0.1,5.3,2.3,4.9,5.8c-0.5,4-0.6,8.1-1.4,12.1c-0.3,1.9-1.2,2.9-3.1,2.8
			c-2.3-0.1-4.6-0.3-6.8-0.6c-1.1-0.1-1.7-0.9-1.8-2c-0.1-1.1-0.3-2.3-0.4-3.4c-0.2-1.4,0-3.1-2.2-2.8c-1.8,0.2-3.5,0.8-3.5,3.2
			C341.1,77.6,341.1,83.8,341.1,90.1C341.1,90.1,341.1,90.1,341.1,90.1z"/>
		<path fill="#AAAAAA" d="M139.4,89.5c0-6.3-0.1-12.5,0-18.8c0-2.5-0.7-3.7-3.4-3.8c-3.3,0-4.2-1.3-3.8-4.5c0-0.3,0.1-0.7,0.2-1
			c0.7-4.1,0.7-4.3,4.7-4.4c3-0.1,4.4-1.3,4.7-4.1c0.1-0.7,0.5-1.3,0.7-2c0.6-1.9,0.4-4.4,2.4-5.3c2.8-1.3,6.1-1,9.1-0.8
			c1.4,0.1,1.5,1.3,1.6,2.4c0,2.6,0.1,5.3,0,7.9c0,1.7,0.7,2.4,2.4,2.4c2,0,4.1,0,6.1,0c1.9,0,2.8,1,2.5,2.9c-0.1,0.3-0.1,0.7-0.2,1
			c-0.9,5.5-0.9,5.5-6.4,5.7c-4.1,0.1-4.3,0.3-4.3,4.5c0,10.9,0,21.7,0,32.6c0,4.9,1.4,6.3,6.3,6.3c4.2,0,6.3,2.6,5.6,6.8
			c-0.1,0.9-0.6,1.5-1.4,1.7c-6.5,1.9-13.1,3.3-19.6,0.1c-4.4-2.1-6.7-5.8-6.8-10.5C139.3,102.2,139.4,95.9,139.4,89.5
			C139.4,89.5,139.4,89.5,139.4,89.5z"/>
		<path fill="#AAAAAA" d="M619.1,116.4c0,1.9-1.8,3.8-3.6,3.8c-2.2,0-3.8-1.7-3.8-3.8c0-2.3,1.3-3.5,3.6-3.5C617.5,112.9,619.1,114.4,619.1,116.4z"
			/>
	</g>
</g>
</svg>
