<?xml version="1.0" encoding="utf-8"?>
<svg version="1.1" id="Layer_1" xmlns="http://www.w3.org/2000/svg" xmlns:xlink="http://www.w3.org/1999/xlink" x="0px" y="0px"
	 viewBox="0 0 328 260" style="enable-background:new 0 0 328 260;" xml:space="preserve">
<g>
	<g>
		<path fill="#AAAAAA" d="M29.2,201.2c5.5-0.6,11-1.1,16.5-1.7c6-0.6,11.9-1.2,17.9-1.9c0.8-0.1,0.9,0.2,0.9,0.9c0,2.1,0,4.1,0.4,6.2
			c1.4,6.8,6.3,11,13.6,11.5c5.5,0.4,10.7-0.8,14.6-5.1c3.4-3.8,4.6-8.4,4.6-13.3c0-4.8-1-9.2-4.3-12.9c-3.6-4.1-8.4-5.4-13.7-5.4
			c-4.1,0-8,0.7-11.3,3.5c-1.1,1-2,2.2-2.8,3.4c-0.4,0.6-0.8,0.7-1.4,0.6c-9-1.1-18-2.3-27-3.3c-1.3-0.2-1.6-0.5-1.5-1.9
			c1.3-11.6,2.4-23.3,3.6-34.9c0.9-8.8,1.8-17.5,2.7-26.3c0.1-1.1,0.4-1.4,1.6-1.4c28.4,0,56.8,0,85.3,0c1.1,0,1.5,0.1,1.3,1.4
			c-0.5,3.5-0.7,7-1.1,10.5c-0.1,0.2-0.1,0.3-0.2,0.5c-0.9,0.5-1.4,1.4-2.1,2.2c-2.6,3.1-4.8,6.5-6.5,10.2c-0.1,0-0.1,0.1-0.2,0.1
			c-7.4,0-14.8,0-22.2,0c-9.7,0-19.5,0-29.2,0c-1,0-1.4,0.3-1.4,1.3c-0.1,1.7-0.3,3.5-0.5,5.2c-0.3,3.3-0.6,6.5-1,10
			c1.7-0.9,3-1.8,4.6-2.3c9.6-2.8,19.3-3.5,29.1-1.7c5.2,0.9,10.1,2.7,14.8,5.2c0,0.1,0,0.1,0,0.2c-1,4.4-1.3,9-1.5,13.5
			c-0.3,6.6,0,13.3,1.1,19.9c1.2,7.1,3.3,13.9,6.8,20.3c1.2,2.2,2.4,4.6,4.3,6.4c0,0.1,0,0.2,0,0.3c-8.9,11.3-21,16.3-34.9,17.6
			c-9.2,0.9-18.5,0.8-27.5-1.4c-10-2.4-18.7-7.1-25-15.5c-3.9-5.2-5.9-11.3-7.3-17.5c-0.2-1-0.3-2.1-0.8-3
			C29.2,201.9,29.2,201.6,29.2,201.2z"/>
		<path fill="#AAAAAA" d="M95.2,17c0,5.2,0.1,10.3,0.1,15.5c0,1.6,0,3.2,0,4.7c0,0.8-0.3,1-1.1,1c-3.2,0-6.3,0-9.5,0
			c-0.9,0-1.2,0.1-1.2,1.1c0,15.7,0,31.3,0,47c0,0.9,0.3,1.1,1.1,1.1c3.2,0,6.3,0,9.5,0c1,0,1.2,0.3,1.1,1.2c0,5.8,0,11.7,0,17.5
			c0,1-0.3,1.2-1.3,1.2c-20.1,0-40.2,0-60.2,0c-1.1,0-1.3-0.4-1.3-1.3c0-5.7,0-11.5,0-17.2c0-0.9,0.2-1.3,1.2-1.2
			c3.2,0.1,6.3,0,9.5,0c0.8,0,1-0.2,1-1c0-15.7,0-31.5,0-47.2c0-0.9-0.3-1-1.1-1c-3.1,0-6.2,0-9.3,0c-1,0-1.3-0.2-1.3-1.3
			c0.1-6.7,0-13.3,0-20C53.5,17,74.3,17,95.2,17z"/>
		<path fill="#AAAAAA" d="M199.7,88.3c0,0.7,0,1.1,0,1.5c0,5.4,0,10.8,0,16.2c0,0.9-0.1,1.3-1.2,1.3c-15.2,0-30.4,0-45.5,0
			c-0.9,0-1.2-0.1-1.2-1.1c0-5.9,0-11.8,0-17.6c0-1,0.3-1.2,1.2-1.1c2.3,0.1,4.6,0,6.8,0c0.8,0,1.1-0.2,1.1-1.1c0-6.4,0-12.9,0-19.3
			c0-4.9-2.5-7.8-7.6-8.8c-6.5-1.3-12.8,2.5-14.5,8.7c-0.3,1.2-0.4,2.4-0.4,3.6c0,5.2,0,10.4,0,15.7c0,0.9,0.2,1.2,1.2,1.2
			c2.4-0.1,4.7,0,7.1,0c0.7,0,1.1,0.1,1.1,1c0,6,0,11.9,0,17.9c0,0.8-0.2,1-1,1c-15.7,0-31.4,0-47.1,0c-0.9,0-1.1-0.2-1.1-1.1
			c0-5.9,0-11.8,0-17.8c0-0.8,0.2-1.1,1-1c2.3,0.1,4.6,0,6.8,0c0.8,0,1.1-0.1,1.1-1c0-9.1,0-18.2,0-27.4c0-0.9-0.2-1.1-1.1-1.1
			c-2.3,0.1-4.6,0-6.8,0c-0.8,0-1.1-0.2-1.1-1c0-5.9,0-11.8,0-17.8c0-0.9,0.3-1.1,1.1-1.1c12.2,0,24.5,0,36.7,0c1,0,1.1,0.3,1.1,1.2
			c0,4,0,8,0,12.1c0.6-0.2,0.9-0.7,1.3-1.1c5.4-6.5,12.2-10.3,20.7-11.1c6.5-0.7,12.9-0.5,19,1.8c8,3,12.4,8.7,13.3,17.2
			c0.3,2.8,0.2,5.5,0.2,8.3c0,6.6,0,13.2,0,19.9c0,0.8,0.2,1.1,1.1,1.1c1.8-0.1,3.7,0,5.5,0c0.8,0,1-0.1,0.7-0.9
			c-1.8-4.5-2.4-9.2-2.2-14c0.4-12.1,5.9-21.1,16.2-27.2c6.4-3.8,13.5-5.7,20.9-6.4c6.5-0.6,13-0.6,19.4,1.1
			c7.5,1.9,14.1,5.4,18.8,11.8c3.2,4.4,4.9,9.4,5.5,14.8c0.1,0.7-0.2,0.8-0.7,0.8c-4.4,0.5-8.8,1-13.2,1.5c-3.7,0.4-7.3,0.8-11,1.3
			c-1.7,0.2-1.7,0.2-1.8-1.5c-0.1-2.1-0.4-4.1-1-6.1c-1.9-6.4-6.3-7.9-11.9-7.3c-5.2,0.6-8.1,3.9-9.1,8.8
			c-1.3,6.7-1.4,13.4,0.2,20.1c1.1,4.7,4.1,7.5,9,8.1c5.1,0.7,9.7-1.2,11.9-4.9c0.9-1.5,1.3-3.1,1.4-4.9c0-0.7,0.3-0.9,0.9-0.9
			c8.2,0,16.5,0,24.7,0c1,0,0.9,0.4,0.8,1.1c-1.9,12.4-9,20.6-21,23.9c-13.9,3.8-27.6,3.2-40.9-2.8c-7-3.2-12.5-8.1-16.1-15.1
			C200,88.7,199.9,88.6,199.7,88.3z"/>
		<path fill="#AAAAAA" d="M114.2,161.8c0-0.1,0-0.1,0-0.2c1.3-6.1,3.2-12,5.9-17.6c0.1,0,0.1-0.1,0.2-0.1c2.1,0,4.3,0,6.4,0.1
			c0.7,0,0.9-0.2,1-0.9c0.1-1.2,0.3-2.3,0.4-3.5c0.2-2.7,0.7-5.4,0.7-8.1c0.1-0.2,0.1-0.3,0.2-0.5c3-3,6.3-5.7,10-7.9
			c7-4.1,14.6-6.1,22.6-6.6c7.3-0.5,14.5,0.1,21.5,2.4c9.5,3.1,16.9,8.8,22.5,17c0.3,0.4,0.6,0.8,0.8,1.2c0.1,0.2,0.2,0.5,0.3,0.7
			c6.7,11,9.3,23,9.8,35.7c0.2,5.7-0.1,11.4-1,17c-1.3,8.2-3.6,16.1-7.5,23.5c-1,1.9-2.1,3.7-3.2,5.6c-3.4,4.6-7.2,8.8-11.9,12.1
			c-7.1,5-15.1,7.6-23.7,8.4c-8.6,0.8-17-0.1-25-3.3c-7.3-2.9-13.4-7.4-18.3-13.5c-0.3-0.4-0.7-0.8-1-1.2c0-0.1,0-0.2,0-0.3
			c0.2-0.2,0.5-0.4,0.6-0.6c5.9-8.4,8.8-17.7,8.3-28c-0.3-6.3-1.9-12.2-5.1-17.6C125,169.7,120.3,165,114.2,161.8z M181.6,177.8
			c0-5.5-0.3-12.6-1.3-19.7c-0.6-4.1-1.6-8.2-3.8-11.8c-4.4-7-12.6-8.5-19.2-3.7c-2.9,2.1-4.7,5-5.9,8.3c-1.8,5.4-2.6,10.9-3,16.5
			c-0.7,9.9-1,19.8,0.4,29.7c0.6,4.6,1.9,9,4.7,12.8c4.9,6.8,14.3,7.9,20.3,2.3c3-2.8,4.5-6.5,5.6-10.4
			C181.2,194.6,181.6,187,181.6,177.8z"/>
		<path fill="#AAAAAA" d="M204.8,219.6c1.1-1.9,2.2-3.7,3.2-5.6c3.9-7.4,6.2-15.3,7.5-23.5c0.9-5.6,1.2-11.3,1-17
			c-0.5-12.6-3.1-24.7-9.8-35.7c-0.1-0.2-0.2-0.5-0.3-0.7c2.7-3.5,5.5-6.9,9-9.7c6.8-5.5,14.5-8.7,23.1-9.9
			c8.9-1.3,17.8-0.9,26.4,1.8c11.7,3.7,20.2,11.3,25.8,22.1c4.3,8.2,6.5,17,7.5,26.2c1.2,11.3,0.4,22.5-2.7,33.5
			c-2.4,8.5-6.1,16.4-11.9,23.2c-6.8,8-15.4,13.1-25.7,15.2c-10.4,2.1-20.6,1.8-30.7-1.8c-9-3.3-16.2-9.1-21.7-17
			C205.3,220.3,205,220,204.8,219.6z M263.7,179.8c0-4.8-0.2-9.5-0.6-14.3c-0.2-2.3-0.4-4.6-0.8-6.9c-0.6-4.1-1.6-8.2-3.8-11.8
			c-4.7-7.3-13.8-8.6-20.3-2.8c-2.9,2.6-4.5,6-5.5,9.7c-1.6,5.6-2.2,11.3-2.5,17.1c-0.4,9-0.7,18,0.6,27c0.7,4.7,2,9.2,4.9,13.1
			c5.6,7.4,16.4,7.2,21.8-0.4c1.8-2.5,2.9-5.4,3.7-8.3C263.3,194.9,263.6,187.3,263.7,179.8z"/>
		<path fill="#AAAAAA" d="M298.2,96.2c0,6.2-4.9,11.3-11,11.3c-6.3,0-11.4-5-11.4-11.2c0-6.3,4.9-11.2,11.3-11.2
			C293.3,85.1,298.2,90,298.2,96.2z"/>
		<path fill="#AAAAAA" d="M114.2,161.8c6.1,3.3,10.8,7.9,14.4,13.8c3.2,5.4,4.8,11.3,5.1,17.6c0.5,10.3-2.4,19.6-8.3,28
			c-0.2,0.2-0.4,0.4-0.6,0.6c-1.9-1.8-3-4.1-4.3-6.4c-3.5-6.3-5.6-13.2-6.8-20.3c-1.1-6.6-1.4-13.2-1.1-19.9
			C112.9,170.7,113.2,166.2,114.2,161.8z"/>
		<path fill="#AAAAAA" d="M128.7,131.4c0,2.7-0.6,5.4-0.7,8.1c-0.1,1.2-0.3,2.3-0.4,3.5c0,0.7-0.3,0.9-1,0.9c-2.1,0-4.3,0-6.4-0.1
			c1.7-3.7,3.9-7.1,6.5-10.2C127.3,132.8,127.8,131.9,128.7,131.4z"/>
	</g>
</g>
</svg>
