<?xml version="1.0" encoding="utf-8"?>
<svg version="1.1" xmlns="http://www.w3.org/2000/svg" xmlns:xlink="http://www.w3.org/1999/xlink" x="0" y="0"
	 viewBox="0 0 392 260" style="enable-background:new 0 0 392 260;" xml:space="preserve">
<style type="text/css">
	.st9{fill:#AAAAAA;}
	.st11{font-family:'OpenSans-Extrabold';font-size:78.6214px;letter-spacing:3;}
</style>
<g>
	<g>
		<path class="st9" d="M249.4,87.7c0-19.2,0.1-38.5-0.1-57.7c0-2.7,0.7-3.4,3.4-3.4c20.8,0.1,41.5-0.2,62.3,0.2
			c22,0.4,38.8,9.6,47.9,30.4c2.4,5.5,3.9,11.4,4.8,17.3c1.9,13.4,1.5,26.6-2.7,39.5c-6.2,19.3-20.1,29.9-39.6,33.8
			c-6.8,1.3-13.6,1.6-20.4,1.6c-17.4,0-34.8-0.1-52.2,0.1c-2.9,0-3.6-0.8-3.6-3.7C249.5,126.4,249.4,107.1,249.4,87.7z M290.3,89.6
			c0,8.7,0.1,17.4-0.1,26.1c0,2.5,0.7,3.1,3.1,3c3.9-0.3,7.9-0.2,11.8-0.3c13.4-0.4,22.1-7.8,24.7-20.9c0.9-4.3,1.1-8.7,0.8-13.1
			C329.7,73,323,65.1,312,62.1c-6.3-1.7-12.6-1.2-19-1.4c-2.4-0.1-2.8,0.7-2.8,2.9C290.3,72.3,290.3,81,290.3,89.6z"/>
		<path class="st9" d="M137.1,87.9c0-19.4,0-38.7-0.1-58.1c0-2.5,0.4-3.3,3.2-3.3c33.1,0.1,66.1,0.1,99.2,0c2.5,0,3.4,0.5,3.3,3.2
			c-0.2,9.3-0.2,18.6,0,27.8c0.1,2.7-0.8,3.2-3.3,3.2c-20.4-0.1-40.8,0-61.2-0.1c-2.9,0-4.3,0.4-3.8,3.7c0.5,3.3-1.4,7.6,0.8,9.6
			c2,1.9,6.2,0.5,9.4,0.5c17,0,34.1,0.1,51.1,0c2.9,0,3.7,0.8,3.6,3.7c-0.2,6.7-0.2,13.5,0,20.2c0.1,2.7-0.6,3.5-3.4,3.5
			c-19.4-0.1-38.7,0-58.1-0.1c-2.7,0-3.7,0.6-3.4,3.4c0.2,2.3,0.2,4.7,0,6.9c-0.3,2.8,0.8,3.5,3.5,3.5c20.3-0.1,40.6,0,60.9-0.1
			c3.1,0,4.1,0.7,4,4c-0.2,8.9-0.2,17.9,0,26.8c0,2.4-0.4,3.4-3.2,3.4c-33.2-0.1-66.3-0.1-99.5,0c-2.4,0-3.1-0.6-3.1-3.1
			c0.1-19.5,0.1-39,0.1-58.5C137,87.9,137.1,87.9,137.1,87.9z"/>
		<path class="st9" d="M75.9,26.6c16.9,0,33.9,0,50.8-0.1c2.5,0,3.6,0.4,3.5,3.3c-0.2,9.3-0.2,18.5,0,27.8c0,2.4-0.5,3.1-3,3.1
			c-9.3-0.2-18.6,0-27.8-0.1c-2.7-0.1-3.4,0.6-3.4,3.4c0.1,27.1,0,54.3,0.1,81.4c0,3.1-0.6,4.1-3.9,4.1c-11.1-0.2-22.3-0.2-33.4,0
			c-2.6,0-3.2-0.7-3.2-3.3c0.1-27.2,0-54.5,0.1-81.7c0-3-0.6-3.9-3.8-3.8c-9.4,0.2-18.8,0-28.2,0.1c-2.3,0-2.9-0.6-2.9-2.9
			c0.1-9.5,0.1-19,0-28.5c0-2.3,0.6-2.8,2.9-2.8C41.1,26.6,58.5,26.6,75.9,26.6z"/>
	</g>
</g>
<rect x="57.9" y="169.5" fill="none" width="273.8" height="83.9"/>
<text transform="matrix(1 0 0 1 62.6478 229.2119)" class="st9 st11">TALKS</text>
</svg>
