<?xml version="1.0" encoding="utf-8"?>
<svg version="1.1" xmlns="http://www.w3.org/2000/svg" xmlns:xlink="http://www.w3.org/1999/xlink" x="0px" y="0px"
	 viewBox="0 0 585 260" style="enable-background:new 0 0 585 260;" xml:space="preserve">
<g>
	<path fill="#AAAAAA" d="M240.6,69.6c0,7.5,0.1,8.5,4.3,8.9l2.3,0.2c0.4,0.3,0.3,1.6-0.1,1.8c-4.1-0.1-6.5-0.2-9.3-0.2
		c-2.8,0-5.3,0.1-9.9,0.2c-0.4-0.2-0.6-1.4,0-1.8l2.6-0.2c4.1-0.4,4.4-1.4,4.4-8.9V37.8c0-2.2,0-2.3-2.1-2.3h-3.9
		c-3.1,0-7,0.1-8.8,1.8c-1.7,1.6-2.4,3.1-3.2,4.9c-0.6,0.4-1.6,0.1-1.9-0.5c1.1-3.2,2.2-7.8,2.7-10.6c0.2-0.1,1.1-0.2,1.4,0
		c0.4,2.3,2.8,2.2,6,2.2h28.8c3.8,0,4.5-0.1,5.5-2c0.4-0.1,1.1-0.1,1.3,0.2c-0.8,2.9-1.3,8.7-1.1,10.8c-0.3,0.6-1.5,0.6-1.8,0.1
		c-0.2-1.8-0.7-4.4-1.8-5.2c-1.6-1.2-4.3-1.8-8.2-1.8h-5.1c-2.1,0-2.1,0.1-2.1,2.4L240.6,69.6L240.6,69.6L240.6,69.6z M286.1,57.3
		c-3.4,0-3.6,0.1-3.6,2.3v10c0,7.5,0.4,8.5,4.3,8.9l2.1,0.2c0.4,0.3,0.3,1.6-0.1,1.8c-3.8-0.1-6.3-0.2-9-0.2c-3.1,0-5.5,0.1-8.2,0.2
		c-0.4-0.2-0.6-1.4-0.1-1.8l1.2-0.2c4-0.7,4.1-1.4,4.1-8.9V44c0-7.5-0.5-8.7-4.2-9l-1.8-0.1c-0.4-0.3-0.3-1.6,0.1-1.8
		c3.5,0.1,5.9,0.2,9,0.2c2.8,0,5.2-0.1,8.3-0.2c0.4,0.2,0.6,1.5,0.1,1.8l-1.4,0.1c-4.1,0.4-4.3,1.5-4.3,9v8.2c0,2.2,0.1,2.3,3.6,2.3
		h20.3c3.4,0,3.6-0.1,3.6-2.3V44c0-7.5-0.1-8.5-4.3-9l-1.4-0.1c-0.4-0.3-0.3-1.6,0.1-1.8c2.9,0.1,5.7,0.2,8.6,0.2
		c2.8,0,5.2-0.1,8.4-0.2c0.4,0.2,0.6,1.5,0.1,1.8l-1.5,0.1c-4.1,0.4-4.3,1.5-4.3,9v25.6c0,7.5,0.1,8.4,4.3,8.9l1.7,0.2
		c0.4,0.3,0.3,1.6-0.1,1.8c-2.9-0.1-5.7-0.2-8.6-0.2c-2.9,0-5.5,0.1-8.6,0.2c-0.4-0.2-0.6-1.4-0.1-1.8l1.4-0.2
		c4.3-0.7,4.3-1.4,4.3-8.9v-10c0-2.1-0.1-2.3-3.6-2.3H286.1L286.1,57.3z M339.6,44c0-7.4-0.1-8.5-4.3-9l-1.1-0.1
		c-0.4-0.3-0.3-1.6,0.1-1.8c3.1,0.1,5.5,0.2,8.4,0.2H356c4.6,0,8.8,0,9.6-0.2c0.4,1.2,0.9,6.3,1.1,9.5c-0.3,0.4-1.4,0.6-1.8,0.1
		c-1.1-3.3-1.7-5.8-5.4-6.8c-1.5-0.4-3.8-0.4-6.9-0.4h-5.1c-2.1,0-2.1,0.1-2.1,2.8v14.2c0,2,0.2,2,2.3,2h4.1c3,0,5.2-0.1,6.1-0.4
		c0.9-0.3,1.4-0.7,1.7-2.5l0.6-2.9c0.4-0.4,1.6-0.4,1.8,0.1c0,1.7-0.3,4.5-0.3,7.2c0,2.6,0.3,5.3,0.3,6.8c-0.3,0.5-1.5,0.5-1.8,0.1
		l-0.6-2.8c-0.3-1.3-0.8-2.3-2.2-2.7c-1-0.3-2.7-0.4-5.5-0.4h-4.1c-2.1,0-2.4,0.1-2.4,1.9v10c0,3.8,0.2,6.2,1.4,7.4
		c0.8,0.9,2.3,1.6,8.6,1.6c5.5,0,7.5-0.3,9.1-1.1c1.3-0.7,3.2-3.2,5.1-6.9c0.5-0.4,1.5-0.1,1.8,0.5c-0.5,2.5-2.3,8-3.2,9.9
		c-6.4-0.1-12.7-0.2-19.1-0.2h-6.4c-3.1,0-5.5,0.1-9.7,0.2c-0.4-0.2-0.6-1.4-0.1-1.8l2.3-0.2c4.1-0.4,4.4-1.4,4.4-8.9L339.6,44
		L339.6,44L339.6,44z M51.7,132c-3.4,0-3.6,0.1-3.6,2.3v10c0,7.5,0.4,8.5,4.3,8.9l2.1,0.2c0.4,0.3,0.3,1.6-0.1,1.8
		c-3.8-0.1-6.3-0.2-9-0.2c-3.1,0-5.5,0.1-8.2,0.2c-0.4-0.2-0.6-1.4-0.1-1.8l1.2-0.2c4-0.7,4.1-1.4,4.1-8.9v-25.6
		c0-7.5-0.5-8.7-4.2-9l-1.8-0.1c-0.4-0.3-0.3-1.6,0.1-1.8c3.5,0.1,5.9,0.2,9,0.2c2.8,0,5.2-0.1,8.3-0.2c0.4,0.2,0.6,1.5,0.1,1.8
		l-1.4,0.1c-4.1,0.4-4.3,1.5-4.3,9v8.2c0,2.2,0.1,2.3,3.6,2.3H72c3.4,0,3.6-0.1,3.6-2.3v-8.2c0-7.5-0.1-8.5-4.3-9l-1.4-0.1
		c-0.4-0.3-0.3-1.6,0.1-1.8c3.3,0.1,5.7,0.2,8.6,0.2c2.8,0,5.2-0.1,8.4-0.2c0.4,0.2,0.6,1.5,0.1,1.8l-1.5,0.1
		c-4.1,0.4-4.3,1.5-4.3,9v25.6c0,7.5,0.1,8.4,4.3,8.9l1.7,0.2c0.4,0.3,0.3,1.6-0.1,1.8c-2.9-0.1-5.7-0.2-8.6-0.2
		c-2.9,0-5.5,0.1-8.6,0.2c-0.4-0.2-0.6-1.4-0.1-1.8l1.4-0.2c4.3-0.7,4.3-1.4,4.3-8.9v-10c0-2.1-0.1-2.3-3.6-2.3L51.7,132L51.7,132z
		 M139,125.9c0-4.4-0.1-12.6-1.4-14.7c-0.5-0.9-1.8-1.4-3.6-1.5l-1.8-0.1c-0.4-0.5-0.3-1.4,0.1-1.7c2.7,0.1,5.4,0.2,8.1,0.2
		c3,0,4.9-0.1,7.5-0.2c0.6,0.4,0.5,1.3,0.1,1.7l-1.7,0.1c-1.8,0.1-3.1,0.8-3.6,1.7c-1,2.3-1,10.5-1,14.5v8c0,6.2-1,12.7-5,17
		c-3.1,3.3-8.3,5.2-13.6,5.2c-4.9,0-9.8-0.9-13.3-3.9c-3.8-3.1-5.5-8.3-5.5-16.8v-16.8c0-7.4-0.1-8.6-4.3-9l-1.8-0.1
		c-0.4-0.3-0.3-1.5,0.1-1.7c3.6,0.1,6,0.2,8.8,0.2c2.9,0,5.3-0.1,8.8-0.2c0.4,0.2,0.6,1.4,0.1,1.7l-1.7,0.1c-4.1,0.4-4.3,1.6-4.3,9
		V134c0,11.5,3.6,19,14.4,19c10.3,0,14.2-8.1,14.2-18.9L139,125.9L139,125.9L139,125.9z M170,128.1c0,1.9,0.2,1.9,2.3,1.9h4.8
		c2.9,0,5.2-0.1,6-0.4c0.8-0.3,1.4-0.6,1.8-2.5l0.6-2.8c0.4-0.4,1.6-0.4,1.8,0c0,1.7-0.3,4.6-0.3,7.2c0,2.6,0.3,5.3,0.3,6.9
		c-0.3,0.4-1.4,0.4-1.8,0l-0.7-2.8c-0.4-1.3-0.9-2.3-2.3-2.7c-1-0.3-2.8-0.4-5.5-0.4h-4.8c-2.1,0-2.3,0.1-2.3,1.9v9.9
		c0,7.5,0.1,8.5,4.3,8.9l2.4,0.2c0.4,0.3,0.3,1.6-0.1,1.8c-4.2-0.1-6.6-0.2-9.5-0.2c-3.1,0-5.5,0.1-8.9,0.2
		c-0.4-0.2-0.6-1.4-0.1-1.8l1.8-0.2c4.1-0.5,4.3-1.4,4.3-8.9v-25.6c0-7.5-0.1-8.5-4.3-9l-1.1-0.1c-0.4-0.3-0.3-1.6,0.1-1.8
		c3,0.1,5.4,0.2,8.3,0.2h13.1c4.6,0,8.7,0,9.6-0.2c0,3.3,0.1,6.7,0.2,9.4c-0.2,0.4-1.2,0.6-1.7,0.2c-0.6-3.2-1.4-5.8-5-6.8
		c-1.6-0.4-3.9-0.4-6.9-0.4h-4.3c-2.1,0-2.1,0.1-2.1,2.8L170,128.1L170,128.1z M212.8,128.1c0,1.9,0.2,1.9,2.3,1.9h4.8
		c2.9,0,5.2-0.1,6-0.4c0.8-0.3,1.4-0.6,1.8-2.5l0.6-2.8c0.4-0.4,1.6-0.4,1.8,0c0,1.7-0.3,4.6-0.3,7.2c0,2.6,0.3,5.3,0.3,6.9
		c-0.3,0.4-1.4,0.4-1.8,0l-0.7-2.8c-0.4-1.3-0.9-2.3-2.3-2.7c-1-0.3-2.8-0.4-5.5-0.4h-4.8c-2.1,0-2.3,0.1-2.3,1.9v9.9
		c0,7.5,0.1,8.5,4.3,8.9l2.4,0.2c0.4,0.3,0.3,1.6-0.1,1.8c-4.2-0.1-6.6-0.2-9.5-0.2c-3.1,0-5.5,0.1-8.9,0.2
		c-0.4-0.2-0.6-1.4-0.1-1.8l1.8-0.2c4.1-0.5,4.3-1.4,4.3-8.9v-25.6c0-7.5-0.1-8.5-4.3-9l-1.1-0.1c-0.4-0.3-0.3-1.6,0.1-1.8
		c3,0.1,5.4,0.2,8.3,0.2H223c4.6,0,8.7,0,9.6-0.2c0,3.3,0.1,6.7,0.2,9.4c-0.2,0.4-1.2,0.6-1.7,0.2c-0.6-3.2-1.4-5.8-5-6.8
		c-1.6-0.4-3.9-0.4-6.9-0.4h-4.3c-2.1,0-2.1,0.1-2.1,2.8L212.8,128.1L212.8,128.1z M250.1,118.9c0-7.5-0.1-8.7-4.3-9.1l-1.8-0.1
		c-0.4-0.3-0.3-1.6,0.1-1.8c3.6,0.1,6,0.2,9,0.2c2.8,0,5.3-0.1,8.8-0.2c0.4,0.2,0.6,1.5,0.1,1.8l-1.8,0.1c-4.2,0.4-4.3,1.6-4.3,9.1
		v25.3c0,7.5,0.1,8.5,4.3,9l1.8,0.2c0.4,0.3,0.3,1.6-0.1,1.8c-3.6-0.1-6-0.2-8.8-0.2c-3,0-5.4,0.1-9,0.2c-0.4-0.2-0.6-1.4-0.1-1.8
		l1.8-0.2c4.2-0.5,4.3-1.5,4.3-9L250.1,118.9L250.1,118.9z M318.2,142.9c0,2.1,0,10.6,0.2,12.5c-0.1,0.4-0.6,0.8-1.4,0.8
		c-0.9-1.2-2.9-3.7-9.1-10.7l-16.5-18.8c-1.9-2.2-6.8-8-8.3-9.6h-0.1c-0.3,0.9-0.4,2.5-0.4,4.6v15.5c0,3.3,0.1,12.6,1.3,14.7
		c0.4,0.8,1.9,1.2,3.6,1.4l2.2,0.2c0.4,0.6,0.4,1.4-0.1,1.8c-2.8-0.1-5.5-0.2-8.3-0.2c-3,0-4.9,0.1-7.4,0.2
		c-0.5-0.4-0.6-1.4-0.1-1.8l1.9-0.2c1.6-0.2,2.8-0.6,3.1-1.4c1-2.6,0.9-11.2,0.9-14.7v-20.6c0-2-0.1-3.5-1.6-5.1
		c-1-1-2.7-1.5-4.4-1.7l-1.2-0.1c-0.4-0.4-0.4-1.5,0.1-1.8c3,0.2,6.8,0.2,8,0.2c1.1,0,2.3-0.1,3.3-0.2c1.4,3.6,9.8,13,12.2,15.6
		l6.9,7.8c4.9,5.5,8.4,9.5,11.7,12.9h0.1c0.3-0.4,0.3-1.5,0.3-3v-15.2c0-3.3-0.1-12.6-1.4-14.7c-0.4-0.6-1.6-1.1-4.4-1.4l-1.2-0.1
		c-0.5-0.4-0.4-1.6,0.1-1.8c3.3,0.1,5.7,0.2,8.4,0.2c3.1,0,4.9-0.1,7.3-0.2c0.6,0.4,0.6,1.4,0.1,1.8l-1,0.1c-2.3,0.4-3.7,0.9-4,1.5
		c-1.2,2.6-1.1,11.4-1.1,14.7L318.2,142.9L318.2,142.9z M375.9,147.8c0,2.8,0.4,4.6,1.7,5.1c0.2,0.2,0.2,0.6,0,0.8c0,0,0,0,0,0
		c-0.9,0-2.1,0.3-3.5,0.6c-3.8,1-8.9,1.9-12.7,1.9c-8.5,0-16.2-2.3-21.7-7.9c-4.3-4.3-6.5-9.9-6.5-16.2c0-6,2-12.2,6.4-16.9
		c4.8-5,11.8-8.3,22.6-8.3c4.1,0,7.8,0.8,9,1.1c1.3,0.3,3.6,0.8,4.4,0.6c0,2.3,0.4,6.1,1.1,10.3c-0.2,0.6-1.5,0.6-1.9,0.2
		c-2-7.7-7.3-10.1-14.6-10.1c-13.8,0-19.9,9.8-19.9,20.5c0,13.7,7,24.4,21.3,24.4c4.4,0,7-0.9,7.8-2.1c0.4-0.5,0.7-1.8,0.7-4.1v-2.8
		c0-6-0.2-6.4-4.6-6.9l-3.1-0.4c-0.6-0.3-0.5-1.6,0-1.8c2.1,0.1,6,0.2,10.2,0.2c2.8,0,5.2-0.1,7.5-0.2c0.5,0.3,0.6,1.4,0.1,1.8
		l-1.1,0.1c-3,0.4-3.1,2.3-3.1,6L375.9,147.8L375.9,147.8L375.9,147.8z M413.6,144.3c0,7.5,0.1,8.5,4.3,8.9l2.3,0.2
		c0.4,0.3,0.3,1.6-0.1,1.8c-4.1-0.1-6.5-0.2-9.3-0.2c-2.8,0-5.3,0.1-9.9,0.2c-0.4-0.2-0.6-1.4,0-1.8l2.6-0.2
		c4.1-0.4,4.4-1.4,4.4-8.9v-31.8c0-2.2,0-2.3-2.1-2.3h-3.9c-3.1,0-7,0.1-8.8,1.8c-1.7,1.6-2.4,3.1-3.2,4.9c-0.6,0.4-1.6,0.1-1.9-0.5
		c1.1-3.2,2.2-7.8,2.7-10.6c0.2-0.1,1.1-0.2,1.4,0c0.4,2.3,2.8,2.2,6,2.2h28.8c3.8,0,4.5-0.1,5.5-2c0.4-0.1,1.1-0.1,1.3,0.2
		c-0.8,2.9-1.3,8.7-1.1,10.8c-0.3,0.6-1.5,0.6-1.8,0.1c-0.2-1.8-0.7-4.4-1.8-5.2c-1.6-1.2-4.3-1.8-8.3-1.8h-5.1
		c-2.1,0-2.1,0.1-2.1,2.4L413.6,144.3L413.6,144.3L413.6,144.3z M441,132c0-14.2,10.7-25.1,25.3-25.1c16.4,0,24.7,11.9,24.7,24.4
		c0,14.4-11,24.8-24.7,24.8C450.6,156.2,441,144.8,441,132 M483.9,133.5c0-11.7-5.2-24.4-18.8-24.4c-7.4,0-17,5.1-17,20.6
		c0,10.5,5.1,24.2,19.1,24.2C475.8,153.9,483.9,147.5,483.9,133.5 M545,142.9c0,2.1,0,10.6,0.2,12.5c-0.1,0.4-0.6,0.8-1.4,0.8
		c-0.9-1.2-2.9-3.7-9.1-10.7l-16.5-18.8c-1.9-2.2-6.8-8-8.3-9.6h-0.1c-0.3,0.9-0.4,2.5-0.4,4.6v15.5c0,3.3,0.1,12.6,1.3,14.7
		c0.4,0.8,1.9,1.2,3.6,1.4l2.2,0.2c0.4,0.6,0.4,1.4-0.1,1.8c-2.8-0.1-5.5-0.2-8.3-0.2c-3,0-4.9,0.1-7.4,0.2
		c-0.5-0.4-0.6-1.4-0.1-1.8l1.9-0.2c1.6-0.2,2.8-0.6,3.1-1.4c1-2.6,0.9-11.2,0.9-14.7v-20.6c0-2-0.1-3.5-1.6-5.1
		c-1-1-2.7-1.5-4.4-1.7l-1.2-0.1c-0.4-0.4-0.4-1.5,0.1-1.8c3,0.2,6.8,0.2,8,0.2c1.1,0,2.3-0.1,3.3-0.2c1.4,3.6,9.8,13,12.2,15.6
		l6.9,7.8c4.9,5.5,8.4,9.5,11.7,12.9h0.1c0.3-0.4,0.3-1.5,0.3-3v-15.2c0-3.3-0.1-12.6-1.4-14.7c-0.4-0.6-1.6-1.1-4.4-1.4l-1.2-0.1
		c-0.5-0.4-0.4-1.6,0.1-1.8c3.3,0.1,5.7,0.2,8.4,0.2c3.1,0,4.9-0.1,7.3-0.2c0.6,0.4,0.6,1.4,0.1,1.8l-1,0.1c-2.3,0.4-3.7,0.9-4,1.5
		c-1.2,2.6-1.1,11.4-1.1,14.7L545,142.9L545,142.9z M212.3,219.1c0,7.5,0.1,8.4,4.7,8.9l1.9,0.2c0.4,0.4,0.3,1.6-0.1,1.8
		c-4.1-0.1-6.4-0.2-9.2-0.2c-3,0-5.5,0.1-8.7,0.2c-0.4-0.2-0.6-1.4-0.1-1.8l1.5-0.2c4.1-0.6,4.3-1.4,4.3-8.9v-26.3
		c0-6-0.1-7.3-3.3-7.6l-2.6-0.3c-0.5-0.4-0.4-1.5,0.1-1.8c3.8-0.5,8.2-0.6,14.1-0.6s10.3,0.8,13.7,2.8c3.3,2.1,5.7,5.8,5.7,10.7
		c0,6.5-4.1,9.8-7.1,11.3c-3.1,1.5-6.9,2.1-9.8,2.1c-0.5-0.2-0.5-1.3-0.1-1.4c7.7-1.4,10.5-5.8,10.5-12c0-6.9-4.1-11.4-11.5-11.4
		c-3.8,0-3.8,0.3-3.8,2.6L212.3,219.1L212.3,219.1z M244.3,206.7c0-14.2,10.7-25.1,25.3-25.1c16.4,0,24.7,11.9,24.7,24.4
		c0,14.4-11,24.8-24.7,24.8C253.9,230.9,244.3,219.6,244.3,206.7 M287.2,208.2c0-11.7-5.2-24.4-18.8-24.4c-7.4,0-17,5.1-17,20.6
		c0,10.5,5.1,24.2,19.1,24.2C279.1,228.7,287.2,222.3,287.2,208.2 M317.8,230.9c-6,0-9.7-1.9-11.1-2.6c-0.9-1.6-1.8-6.6-1.9-10
		c0.4-0.5,1.4-0.6,1.7-0.2c1.1,3.6,4,10.6,12.2,10.6c6,0,8.9-3.9,8.9-8.2c0-3.1-0.6-6.6-5.8-10l-6.8-4.4c-3.6-2.3-7.7-6.4-7.7-12.2
		c0-6.8,5.3-12.2,14.5-12.2c2.2,0,4.8,0.4,6.6,0.9c0.9,0.3,1.9,0.4,2.5,0.4c0.6,1.7,1.3,5.7,1.3,8.7c-0.3,0.4-1.4,0.6-1.8,0.2
		c-0.9-3.4-2.8-8-9.7-8c-7,0-8.5,4.6-8.5,7.9c0,4.1,3.4,7.1,6,8.8l5.7,3.6c4.5,2.8,8.9,6.9,8.9,13.7
		C333,225.5,327.1,230.9,317.8,230.9 M368.4,219.1c0,7.5,0.1,8.5,4.3,8.9l2.3,0.2c0.4,0.3,0.3,1.6-0.1,1.8c-4.1-0.1-6.5-0.2-9.3-0.2
		c-2.8,0-5.3,0.1-9.9,0.2c-0.4-0.2-0.6-1.4,0-1.8l2.6-0.2c4.1-0.4,4.4-1.4,4.4-8.9v-31.8c0-2.2,0-2.3-2.1-2.3h-3.9
		c-3.1,0-7,0.1-8.8,1.8c-1.7,1.6-2.4,3.1-3.2,4.9c-0.6,0.4-1.6,0.1-1.9-0.5c1.1-3.2,2.2-7.8,2.7-10.6c0.2-0.1,1.1-0.2,1.4,0
		c0.4,2.3,2.8,2.2,6,2.2h28.8c3.8,0,4.5-0.1,5.6-2c0.4-0.1,1.1-0.1,1.3,0.2c-0.8,2.9-1.3,8.7-1.1,10.8c-0.3,0.6-1.5,0.6-1.9,0.1
		c-0.2-1.8-0.7-4.4-1.8-5.2c-1.6-1.2-4.3-1.8-8.3-1.8h-5.1c-2.1,0-2.1,0.1-2.1,2.4L368.4,219.1L368.4,219.1z"/>
</g>
</svg>
